<svg xmlns="http://www.w3.org/2000/svg" viewBox="0 0 40 40">
  <!-- Background -->
  <rect width="40" height="40" fill="#3B394B"/>
  <!-- Shapes inset ~8.6% from each edge (matches Figma inset 8.59%/8.64%/8.62%/8.62%) -->
  <g transform="translate(3.45, 3.44)">
    <!-- Green arrow — top -->
    <path d="M6.7525 9.6225C6.7825 9.5525 6.8225 9.4925 6.8825 9.4325L16.1325 0.1725C16.3625 -0.0575 16.7425 -0.0575 16.9825 0.1725L20.3425 3.5325C20.4525 3.6425 20.5225 3.8025 20.5225 3.9625V9.8625C20.5225 10.1925 20.2625 10.4625 19.9225 10.4625H7.3225C6.9825 10.4625 6.7225 10.1825 6.7225 9.8525C6.7225 9.7725 6.7425 9.6925 6.7725 9.6225H6.7525Z" fill="#37EB77"/>
    <!-- Purple arrow — right -->
    <path d="M32.9326 16.9832L29.5726 20.3432C29.5126 20.3932 29.4526 20.4432 29.3826 20.4732C29.3126 20.5032 29.2326 20.5232 29.1426 20.5232H23.2426C22.9126 20.5232 22.6426 20.2532 22.6426 19.9232V7.31316C22.6426 6.97316 22.9226 6.70316 23.2626 6.71316C23.3426 6.71316 23.4126 6.73316 23.4826 6.75316C23.5526 6.78316 23.6226 6.83316 23.6726 6.88316L32.9226 16.1332C33.1526 16.3632 33.1526 16.7432 32.9226 16.9832H32.9326Z" fill="#A66DFA"/>
    <!-- Teal arrow — bottom -->
    <path d="M26.352 23.5021C26.322 23.5721 26.282 23.6321 26.222 23.6921L16.972 32.9421C16.742 33.1721 16.362 33.1721 16.122 32.9421L12.762 29.5821C12.652 29.4721 12.582 29.3121 12.582 29.1521V23.2621C12.582 22.9321 12.842 22.6621 13.172 22.6621H25.772C26.112 22.6621 26.372 22.9421 26.372 23.2721C26.372 23.3521 26.352 23.4321 26.322 23.5021H26.352Z" fill="#00EBE5"/>
    <!-- Lime square — centre -->
    <path d="M13.2016 12.6016H19.9116C20.2416 12.6016 20.5116 12.8716 20.5116 13.2016V19.9116C20.5116 20.2416 20.2416 20.5116 19.9116 20.5116H13.2016C12.8716 20.5116 12.6016 20.2416 12.6016 19.9116V13.2016C12.6016 12.8716 12.8716 12.6016 13.2016 12.6016Z" fill="#C3FC33"/>
    <!-- Purple arrow — left -->
    <path d="M10.4025 26.0518C10.2625 26.3618 9.9125 26.5018 9.6025 26.3618C9.5325 26.3318 9.4725 26.2918 9.4225 26.2418L0.1725 16.9818C-0.0575 16.7518 -0.0575 16.3718 0.1725 16.1318L3.5325 12.7718C3.5925 12.7218 3.6525 12.6718 3.7225 12.6418C3.7925 12.6118 3.8725 12.5918 3.9625 12.5918H9.8625C10.1925 12.6018 10.4525 12.8718 10.4625 13.2018V25.8018C10.4625 25.8818 10.4425 25.9618 10.4125 26.0418L10.4025 26.0518Z" fill="#A66DFA"/>
  </g>
</svg>
