<svg preserveAspectRatio="none" width="100%" height="100%" overflow="visible" style="display: block;" viewBox="0 0 40 40" fill="none" xmlns="http://www.w3.org/2000/svg">
<g id="Frame">
<path id="Vector" d="M20 26.666H20.0167" stroke="var(--stroke-0, #FF0000)" stroke-width="4" stroke-linecap="round" stroke-linejoin="round"/>
<path id="Vector_2" d="M20 13.334V20.0007" stroke="var(--stroke-0, #FF0000)" stroke-width="4" stroke-linecap="round" stroke-linejoin="round"/>
<path id="Vector_3" d="M25.5187 3.33398C26.4027 3.33417 27.2504 3.68549 27.8754 4.31065L35.6887 12.124C36.3139 12.749 36.6652 13.5967 36.6654 14.4807V25.5207C36.6652 26.4046 36.3139 27.2523 35.6887 27.8773L27.8754 35.6906C27.2504 36.3158 26.4027 36.6671 25.5187 36.6673H14.4787C13.5947 36.6671 12.747 36.3158 12.122 35.6906L4.3087 27.8773C3.68353 27.2523 3.33222 26.4046 3.33203 25.5207V14.4807C3.33222 13.5967 3.68353 12.749 4.3087 12.124L12.122 4.31065C12.747 3.68549 13.5947 3.33417 14.4787 3.33398H25.5187Z" stroke="var(--stroke-0, #FF0000)" stroke-width="4" stroke-linecap="round" stroke-linejoin="round"/>
</g>
</svg>
