<svg height="19" viewBox="0 0 23 19" width="23" xmlns="http://www.w3.org/2000/svg"><g fill="none" stroke="var(--icon-color, currentColor)" stroke-width="1.5"><g><rect height="6" rx=".5" stroke="none" width="4" x="1.5" y="1.5"/><rect fill="none" height="7.5" rx="1.25" width="5.5" x=".75" y=".75"/></g><g><rect height="6" rx=".5" stroke="none" width="4" x="9.5" y="1.5"/><rect fill="none" height="7.5" rx="1.25" width="5.5" x="8.75" y=".75"/></g><g><rect height="6" rx=".5" stroke="none" width="4" x="17.5" y="1.5"/><rect fill="none" height="7.5" rx="1.25" width="5.5" x="16.75" y=".75"/></g><g><rect height="6" rx=".5" stroke="none" width="4" x="1.5" y="11.5"/><rect fill="none" height="7.5" rx="1.25" width="5.5" x=".75" y="10.75"/></g><g><rect height="6" rx=".5" stroke="none" width="4" x="9.5" y="11.5"/><rect fill="none" height="7.5" rx="1.25" width="5.5" x="8.75" y="10.75"/></g><g><rect height="6" rx=".5" stroke="none" width="4" x="17.5" y="11.5"/><rect fill="none" height="7.5" rx="1.25" width="5.5" x="16.75" y="10.75"/></g></g></svg>