<svg width="18" height="18" viewBox="0 0 18 18" fill="none" xmlns="http://www.w3.org/2000/svg">
  <path
    d="M5.64072 7.39843C5.52865 7.40454 5.41708 7.37955 5.31833 7.32621C5.21959 7.27286 5.13752 7.19325 5.08119 7.09618C5.02487 6.9991 4.9965 6.88833 4.9992 6.77613C5.0019 6.66393 5.03558 6.55467 5.09652 6.46042L8.33565 1.3131C8.38655 1.22144 8.46026 1.14449 8.54965 1.0897C8.63903 1.03492 8.74106 1.00415 8.84583 1.00039C8.9506 0.996631 9.05457 1.02 9.14765 1.06824C9.24073 1.11648 9.31977 1.18795 9.37711 1.27572L12.5954 6.44216C12.6588 6.53326 12.6961 6.63997 12.7033 6.75075C12.7104 6.86153 12.6871 6.97216 12.6359 7.07065C12.5847 7.16913 12.5075 7.25174 12.4127 7.30951C12.3179 7.36729 12.2091 7.39804 12.0981 7.39843H5.64072Z"
    stroke="black" stroke-width="2" stroke-linecap="round" stroke-linejoin="round" />
  <path
    d="M6.56854 10.916H2.22187C1.74175 10.916 1.35254 11.3052 1.35254 11.7853V16.132C1.35254 16.6121 1.74175 17.0013 2.22187 17.0013H6.56854C7.04865 17.0013 7.43787 16.6121 7.43787 16.132V11.7853C7.43787 11.3052 7.04865 10.916 6.56854 10.916Z"
    stroke="black" stroke-width="2" stroke-linecap="round" stroke-linejoin="round" />
  <path
    d="M13.9577 17.0013C15.6381 17.0013 17.0004 15.6391 17.0004 13.9587C17.0004 12.2783 15.6381 10.916 13.9577 10.916C12.2773 10.916 10.915 12.2783 10.915 13.9587C10.915 15.6391 12.2773 17.0013 13.9577 17.0013Z"
    stroke="black" stroke-width="2" stroke-linecap="round" stroke-linejoin="round" />
</svg>