<svg height="60" viewBox="0 0 50 60" width="50" xmlns="http://www.w3.org/2000/svg"><g fill="none" stroke-linecap="round" stroke-linejoin="round"><g transform="translate(1 3)"><path d="m26.5 2h-17.5a5 5 0 0 0 -5 5v40a5 5 0 0 0 5 5h30a5 5 0 0 0 5-5v-27.5z"/><path d="m9 2a5 5 0 0 0 -5 5v40a5 5 0 0 0 5 5h30a5 5 0 0 0 5-5v-27.5l-17.5-17.5zm0-5h17.5a5 5 0 0 1 3.536 1.464l17.5 17.5a5 5 0 0 1 1.464 3.536v27.5c0 5.514-4.486 10-10 10h-30c-5.514 0-10-4.486-10-10v-40c0-5.514 4.486-10 10-10z" fill="var(--icon-color, #000)"/></g><path d="m13 2v17.5h17.5" stroke="var(--icon-color, #000)" stroke-width="5" transform="translate(14.5 3)"/></g></svg>