<svg fill="var(--icon-color, #000)" stroke="var(--icon-color, #000)" stroke-width="3px"
  xmlns="http://www.w3.org/2000/svg" viewBox="0 0 50 53" width="50px" height="53px">
  <path
    d="M 25 3 C 18.363281 3 13 8.363281 13 15 L 13 20 L 9 20 C 7.355469 20 6 21.355469 6 23 L 6 47 C 6 48.644531 7.355469 50 9 50 L 41 50 C 42.644531 50 44 48.644531 44 47 L 44 23 C 44 21.355469 42.644531 20 41 20 L 37 20 L 37 15 C 37 8.363281 31.636719 3 25 3 Z M 25 5 C 30.566406 5 35 9.433594 35 15 L 35 20 L 15 20 L 15 15 C 15 9.433594 19.433594 5 25 5 Z M 9 22 L 41 22 C 41.554688 22 42 22.445313 42 23 L 42 47 C 42 47.554688 41.554688 48 41 48 L 9 48 C 8.445313 48 8 47.554688 8 47 L 8 23 C 8 22.445313 8.445313 22 9 22 " />
</svg>