<svg xmlns="http://www.w3.org/2000/svg" width="11.969" height="18" viewBox="0 0 11.969 18">
    <path d="M5399.668 20856.848a3.15 3.15 0 1 1 3.148 3.152 3.148 3.148 0 0 1-3.148-3.152zm2.248-3.633v-.9c0-.217-.066-.3-.137-.348a.516.516 0 0 0-.283-.1c-.118 0-.344 0-.622-.006-.772 0-2.069 0-2.417.006h-.024a2.321 2.321 0 0 1-1.579-.656 2.131 2.131 0 0 1-.631-1.551v-.9h1.8v.9a.346.346 0 0 0 .095.27.543.543 0 0 0 .311.137c.363-.006 1.616-.006 2.441-.006.278.006.5.006.622.006a2.323 2.323 0 0 1 1.38.477 2.173 2.173 0 0 1 .839 1.775v.9zm-7.917-8.066a3.15 3.15 0 1 1 3.148 3.15 3.148 3.148 0 0 1-3.147-3.151zm1.8 0a1.35 1.35 0 1 0 1.348-1.35 1.355 1.355 0 0 0-1.347 1.349z" transform="translate(-5394 -20842)" style="fill:#03c4bf"/>
</svg>
