<svg xmlns="http://www.w3.org/2000/svg" width="23.021" height="19.616" viewBox="0 0 23.021 19.616">
  <g id="noun-sparkle-4183020" transform="translate(-3.75 -10.59)">
    <path id="Path_85618" data-name="Path 85618" d="M15.325,17.545A7.626,7.626,0,0,0,10.7,22.166a.9.9,0,0,1-.86.614h0a.9.9,0,0,1-.859-.614,7.626,7.626,0,0,0-4.621-4.621.908.908,0,0,1,0-1.719A7.627,7.627,0,0,0,8.985,11.2a.908.908,0,0,1,1.719,0,7.627,7.627,0,0,0,4.621,4.621.908.908,0,0,1,0,1.719Zm5.475,7.8a5.114,5.114,0,0,1-2.478-2.479,1,1,0,0,0-1.81,0,5.115,5.115,0,0,1-2.478,2.478,1,1,0,0,0,0,1.809,5.114,5.114,0,0,1,2.478,2.479h0a1,1,0,0,0,1.81,0A5.115,5.115,0,0,1,20.8,27.149a1,1,0,0,0,0-1.809Zm5.46-8.035a3.942,3.942,0,0,1-1.911-1.91.871.871,0,0,0-.8-.51h0a.871.871,0,0,0-.8.509,3.941,3.941,0,0,1-1.911,1.91.878.878,0,0,0,0,1.594,3.942,3.942,0,0,1,1.91,1.91h0a.871.871,0,0,0,.8.509h0a.871.871,0,0,0,.8-.51,3.942,3.942,0,0,1,1.91-1.91.878.878,0,0,0,0-1.594Z" fill="#03c4bf"/>
  </g>
</svg>
