<?xml version="1.0" encoding="utf-8"?>
<svg version="1.1"
  xmlns="http://www.w3.org/2000/svg"
  xmlns:xlink="http://www.w3.org/1999/xlink" x="0px" y="0px" viewBox="0 0 88 22" xml:space="preserve">
  <path d="M9,0h4c5,0,9,4,9,9v4c0,5-4,9-9,9H9c-5,0-9-4-9-9V9C0,4,4,0,9,0z" style="fill:var(--icon-bg-color, black)" />
  <path d="M17,22H5c-2.8,0-5-2.2-5-5V5c0-2.8,2.2-5,5-5h12c2.8,0,5,2.2,5,5v12C22,19.8,19.8,22,17,22z M3.3,2.4
			c-0.5,0-0.9,0.4-0.9,0.9c0,0.2,0.1,0.4,0.2,0.6c0,0,0,0,0,0.1l3.2,3.2c0.3,0.3,0.4,0.7,0.4,1v5.6c0,0.4-0.2,0.8-0.4,1L2.6,18
			c0,0,0,0,0,0.1c-0.3,0.4-0.3,1,0.1,1.3c0.2,0.1,0.4,0.2,0.6,0.2c0.3,0,0.5-0.1,0.7-0.3l3.2-3.1c0.3-0.3,0.7-0.4,1-0.4h5.7
			c0.4,0,0.8,0.2,1,0.4l3.2,3.2c0,0,0,0,0.1,0c0.2,0.1,0.4,0.2,0.6,0.2c0.5,0,0.9-0.4,0.9-0.9c0-0.2-0.1-0.4-0.2-0.6l0,0l0,0l0,0
			l-3.2-3.2c-0.3-0.3-0.4-0.7-0.4-1V8.2c0-0.4,0.2-0.8,0.4-1l3.1-3.1c0.4-0.3,0.5-0.9,0.1-1.3c-0.2-0.2-0.4-0.3-0.7-0.3
			c-0.2,0-0.3,0.1-0.5,0.1c-0.1,0-0.1,0.1-0.1,0.1l-3.2,3.2c-0.3,0.3-0.7,0.4-1,0.4H8.2c-0.4,0-0.8-0.2-1-0.4L3.9,2.7c0,0,0,0-0.1,0
			C3.7,2.5,3.5,2.4,3.3,2.4z" style="fill:var(--icon-color, #00ffba)"/>
  <path d="M9.1,8h3.9c0.6,0,1.1,0.5,1.1,1.1l0,0V13c0,0.6-0.5,1.1-1.1,1.1l0,0H9.1C8.5,14.1,8,13.6,8,13c0,0,0,0,0,0V9.1
			C8,8.5,8.5,8,9.1,8z" style="fill:var(--icon-color, #00ffba)"/>
  <path d="M31.5 7h3C36 7 37 7.9 37 9.2c0 .8-.5 1.4-1.1 1.7.8.2 1.5.8 1.5 1.8 0 1.3-1.1 2.2-2.7 2.2h-3.2V7zm2.8 3.1c.5 0 .8-.4.8-.7 0-.4-.3-.7-.8-.7h-.9v1.5h.9zm.3 3.2c.5 0 .8-.3.8-.8s-.4-.8-.9-.8h-1.1v1.6h1.2zM47.5 11c0 2.3-1.7 4.1-4.1 4.1-2.4 0-4.1-1.8-4.1-4.1s1.7-4.1 4.1-4.1c2.4 0 4.1 1.8 4.1 4.1zm-6.3 0c0 1.3.8 2.3 2.1 2.3s2.1-1 2.1-2.3c0-1.3-.8-2.3-2.1-2.3-1.2 0-2.1 1-2.1 2.3zM50.9 11l-2.4-3.9h2.2l1.4 2.5 1.5-2.5h2.2L53.4 11l2.4 3.9h-2.1l-1.5-2.5-1.5 2.5h-2.1l2.3-3.9zM57.7 7h5.2v1.7h-3.2v1.4h2.6v1.6h-2.6v1.5H63v1.7h-5.3V7zM65.3 7h1.9v6.1h3v1.7h-4.9V7z" style="fill:var(--icon-text-color, white)"></path>
</svg>
