<svg xmlns="http://www.w3.org/2000/svg" viewBox="3 3 18 18"><path fill="var(--icon-color, #000)" d="M16 8c-.5523 0-1 .4477-1 1s.4477 1 1 1V8Zm-8 2c.5523 0 1-.4477 1-1s-.4477-1-1-1v2Zm-2.922 9.7748-.461.8874.461-.8874Zm-.8528-.8529.8874-.4609-.8874.4609Zm15.5496 0 .8874.461-.8874-.461Zm-.8529.8529.461.8874-.461-.8874Zm.8529-9.6967.8874-.461-.8874.461Zm-.8529-.853-.4609.8875.4609-.8874Zm-14.6967.853-.8874-.461.8874.461Zm.8529-.853-.461-.8873.461.8874ZM13 4c0-.5523-.4477-1-1-1s-1 .4477-1 1h2Zm-1 10-.7071.7071c.3905.3905 1.0237.3905 1.4142 0L12 14Zm-1.7929-3.2071c-.3905-.3905-1.0237-.3905-1.4142 0-.3905.3905-.3905 1.0237 0 1.4142l1.4142-1.4142Zm5 1.4142c.3905-.3905.3905-1.0237 0-1.4142-.3905-.3905-1.0237-.3905-1.4142 0l1.4142 1.4142ZM19 12.22v4.56h2v-4.56h-2ZM16.78 19H7.22v2h9.56v-2ZM5 16.78v-4.56H3v4.56h2ZM16 10h.78V8H16v2Zm-8.78 0H8V8h-.78v2Zm0 9c-.5863 0-.9648-.0008-1.2528-.0247-.276-.0229-.378-.0618-.4282-.0879l-.922 1.7748c.3833.1991.7828.2728 1.1847.3062.39.0324.8656.0316 1.4183.0316v-2ZM3 16.78c0 .5527-.0008 1.0284.0316 1.4183.0333.4019.107.8014.3062 1.1846l1.7748-.9219c-.0261-.0502-.065-.1522-.0879-.4282C5.0008 17.7448 5 17.3663 5 16.78H3Zm2.539 2.1074a1.0002 1.0002 0 0 1-.4264-.4264l-1.7748.9219c.2846.548.7313.9947 1.2793 1.2793l.922-1.7748ZM19 16.78c0 .5863-.0008.9648-.0247 1.2528-.0229.276-.0618.378-.0879.4282l1.7748.9219c.1991-.3832.2728-.7827.3062-1.1846.0324-.3899.0316-.8656.0316-1.4183h-2ZM16.78 21c.5527 0 1.0284.0008 1.4183-.0316.4019-.0334.8014-.1071 1.1846-.3062l-.9219-1.7748c-.0502.0261-.1522.065-.4282.0879-.288.0239-.6665.0247-1.2528.0247v2Zm2.1074-2.539a1.0006 1.0006 0 0 1-.4264.4264l.9219 1.7748a2.9989 2.9989 0 0 0 1.2793-1.2793l-1.7748-.9219ZM21 12.22c0-.5527.0008-1.0284-.0316-1.4183-.0334-.4019-.1071-.8014-.3062-1.1846l-1.7748.9219c.0261.0502.065.1522.0879.4282.0239.288.0247.6665.0247 1.2528h2ZM16.78 10c.5863 0 .9648.0008 1.2528.0247.276.0229.378.0618.4282.0879l.9219-1.7748c-.3832-.1991-.7827-.2729-1.1846-.3062C17.8084 7.9992 17.3327 8 16.78 8v2Zm3.8822-.383a2.9995 2.9995 0 0 0-1.2793-1.2792l-.9219 1.7748c.1826.0949.3315.2438.4264.4264l1.7748-.922ZM5 12.22c0-.5863.0008-.9648.0247-1.2528.023-.276.0618-.378.0879-.4282l-1.7748-.922c-.1991.3833-.2729.7828-.3062 1.1847C2.9992 11.1916 3 11.6673 3 12.22h2ZM7.22 8c-.5527 0-1.0284-.0008-1.4183.0316-.4019.0334-.8014.107-1.1846.3062l.922 1.7748c.0501-.0261.1521-.065.4281-.0879C6.2552 10.0008 6.6337 10 7.22 10V8Zm-2.1074 2.539a1.0002 1.0002 0 0 1 .4264-.4264l-.922-1.7748A3 3 0 0 0 3.3379 9.617l1.7748.9219ZM11 4v10h2V4h-2Zm1.7071 9.2929-2.5-2.5-1.4142 1.4142 2.5 2.5 1.4142-1.4142Zm0 1.4142 2.5-2.5-1.4142-1.4142-2.5 2.5 1.4142 1.4142Z"/></svg>