<svg xmlns="http://www.w3.org/2000/svg" viewBox="0.75 0.75 22.5 22.5"><g stroke="var(--icon-color, #000)"><path d="m15.7285 3.88396c1.4344-1.43989 3.5324-1.47013 4.6939-.30415 1.1636 1.16817 1.1323 3.27941-.303 4.72028l-2.4238 2.43321c-.2923.2935-.2914.7684.002 1.0607.2935.2923.7684.2914 1.0607-.0021l2.4238-2.43321c1.9113-1.91871 2.1513-4.98204.303-6.83749-1.8505-1.857649-4.907-1.615536-6.8193.30416l-4.84763 4.86646c-1.91129 1.91871-2.15125 4.98208-.30298 6.83748.29232.2935.76721.2944 1.06061.0021.2935-.2923.2944-.7672.0021-1.0607-1.16365-1.1681-1.13231-3.2794.303-4.72028z"/><path d="m14.4851 9.47074c-.2923-.29346-.7672-.29438-1.0607-.00206-.2934.29233-.2943.76722-.002 1.06062 1.1636 1.1682 1.1323 3.2794-.303 4.7203l-4.84762 4.8665c-1.43433 1.4399-3.53241 1.4702-4.69387.3042-1.16367-1.1682-1.13232-3.2795.30298-4.7204l2.42384-2.4332c.29233-.2935.29141-.7683-.00205-1.0607-.29346-.2923-.76834-.2914-1.06066.0021l-2.42384 2.4332c-1.911304 1.9188-2.151264 4.9821-.30299 6.8376 1.85048 1.8576 4.90702 1.6155 6.8193-.3042l4.84761-4.8665c1.9113-1.9187 2.1513-4.982.303-6.83746z"/></g></svg>