<svg xmlns="http://www.w3.org/2000/svg" width="23" height="19" viewBox="0 0 23 19">
    <g data-name="Group 19067">
        <g data-name="Group 19069">
            <g data-name="Rectangle 6247" transform="translate(1.5 1.5)"
                style="stroke:var(--icon-color, #000);stroke-width:1.5px;fill:none">
                <rect width="4" height="6" rx=".5" style="stroke:none" />
                <rect x="-.75" y="-.75" width="5.5" height="7.5" rx="1.25" style="fill:none" />
            </g>
            <g data-name="Rectangle 6250" transform="translate(9.5 1.5)"
                style="stroke:var(--icon-color, #000);stroke-width:1.5px;fill:none">
                <rect width="4" height="6" rx=".5" style="stroke:none" />
                <rect x="-.75" y="-.75" width="5.5" height="7.5" rx="1.25" style="fill:none" />
            </g>
            <g data-name="Rectangle 6252" transform="translate(17.5 1.5)"
                style="stroke:var(--icon-color, #000);stroke-width:1.5px;fill:none">
                <rect width="4" height="6" rx=".5" style="stroke:none" />
                <rect x="-.75" y="-.75" width="5.5" height="7.5" rx="1.25" style="fill:none" />
            </g>
            <g data-name="Rectangle 6248" transform="translate(1.5 11.5)"
                style="stroke:var(--icon-color, #000);stroke-width:1.5px;fill:none">
                <rect width="4" height="6" rx=".5" style="stroke:none" />
                <rect x="-.75" y="-.75" width="5.5" height="7.5" rx="1.25" style="fill:none" />
            </g>
            <g data-name="Rectangle 6249" transform="translate(9.5 11.5)"
                style="stroke:var(--icon-color, #000);stroke-width:1.5px;fill:none">
                <rect width="4" height="6" rx=".5" style="stroke:none" />
                <rect x="-.75" y="-.75" width="5.5" height="7.5" rx="1.25" style="fill:none" />
            </g>
            <g data-name="Rectangle 6251" transform="translate(17.5 11.5)"
                style="stroke:var(--icon-color, #000);stroke-width:1.5px;fill:none">
                <rect width="4" height="6" rx=".5" style="stroke:none" />
                <rect x="-.75" y="-.75" width="5.5" height="7.5" rx="1.25" style="fill:none" />
            </g>
        </g>
    </g>
</svg>