<svg height="24" viewBox="0 0 24 24" width="24" xmlns="http://www.w3.org/2000/svg"><path d="m0 0h24v24h-24z" fill="none"/><path fill="var(--icon-color, #000)" stroke="var(--icon-color, #000)" d="m.75 17.5a.751.751 0 0 1 -.75-.75v-4.181a.755.755 0 0 1 .22-.53l11.241-11.239a2.72 2.72 0 0 1 3.848 0l1.391 1.391a2.72 2.72 0 0 1 0 3.848l-11.238 11.241a.747.747 0 0 1 -.531.22zm.75-4.621v3.121h3.12l7.91-7.91-3.12-3.12zm12.091-5.849 2.051-2.051a1.223 1.223 0 0 0 0-1.727l-1.393-1.394a1.222 1.222 0 0 0 -1.727 0l-2.052 2.052z" stroke-width=".7" transform="translate(3.25 3.25)"/></svg>