<?xml version="1.0" encoding="utf-8"?>
<!-- Generator: Adobe Illustrator 27.2.0, SVG Export Plug-In . SVG Version: 6.00 Build 0)  -->
<svg version="1.1" id="Layer_1" xmlns="http://www.w3.org/2000/svg" xmlns:xlink="http://www.w3.org/1999/xlink" x="0px"
    y="0px" viewBox="0 0 512 512" style="enable-background:new 0 0 512 512;" xml:space="preserve">
    <g>
        <path d="M87.88,481.43c0,16.88,13.69,30.57,30.57,30.57h152.84c68.54,0,122.6-23.78,159.5-61.83
		c36.55-37.69,54.47-87.56,54.47-136.86c0-49.3-17.92-99.17-54.47-136.86c-36.89-38.05-90.95-61.82-159.5-61.82H131.11l62.45-62.45
		c11.94-11.94,11.94-31.29,0-43.23c-11.94-11.94-31.29-11.94-43.23,0L35.7,123.58c-11.94,11.94-11.94,31.29,0,43.23l114.63,114.63
		c11.94,11.94,31.29,11.94,43.23,0c11.94-11.94,11.94-31.29,0-43.23l-62.45-62.45h140.17c53.72,0,91.37,18.25,115.61,43.25
		c24.59,25.36,37.23,59.54,37.23,94.3c0,34.76-12.64,68.95-37.23,94.3c-24.24,25-61.88,43.25-115.61,43.25H118.45
		C101.57,450.87,87.88,464.55,87.88,481.43z" />
    </g>
</svg>