<svg viewBox="0 0 256 256" xmlns="http://www.w3.org/2000/svg"><g stroke="var(--icon-color, #000)" stroke-width="10"><path d="m83.4 75.2 36.2-36.2v148.2c0 4.6 3.8 8.4 8.4 8.4s8.4-3.8 8.4-8.4v-148.2l36.2 36.2c3.3 3.3 8.6 3.3 11.9 0 1.6-1.6 2.5-3.8 2.5-5.9s-.8-4.3-2.5-5.9l-50.5-50.6c-3.3-3.3-8.6-3.3-11.9 0l-50.6 50.5c-3.3 3.3-3.3 8.6 0 11.9s8.6 3.3 11.9 0z"/><path d="m237.6 144.6c-4.6 0-8.4 3.8-8.4 8.4v67.4c0 4.6-3.8 8.4-8.4 8.4h-185.5c-4.6 0-8.4-3.8-8.4-8.4v-67.4c0-4.6-3.8-8.4-8.4-8.4s-8.4 3.8-8.4 8.4v67.4c0 13.9 11.3 25.3 25.3 25.3h185.4c13.9 0 25.3-11.3 25.3-25.3v-67.4c-.1-4.6-3.9-8.4-8.5-8.4z"/></g></svg>