<?xml version="1.0" encoding="utf-8" standalone="no"?>
<!DOCTYPE svg PUBLIC "-//W3C//DTD SVG 1.1//EN"
  "http://www.w3.org/Graphics/SVG/1.1/DTD/svg11.dtd">
<svg xmlns:xlink="http://www.w3.org/1999/xlink" width="792pt" height="324pt" viewBox="0 0 792 324" xmlns="http://www.w3.org/2000/svg" version="1.1">
 <metadata>
  <rdf:RDF xmlns:dc="http://purl.org/dc/elements/1.1/" xmlns:cc="http://creativecommons.org/ns#" xmlns:rdf="http://www.w3.org/1999/02/22-rdf-syntax-ns#">
   <cc:Work>
    <dc:type rdf:resource="http://purl.org/dc/dcmitype/StillImage"/>
    <dc:format>image/svg+xml</dc:format>
    <dc:creator>
     <cc:Agent>
      <dc:title>Matplotlib v3.11.1, https://matplotlib.org/</dc:title>
     </cc:Agent>
    </dc:creator>
   </cc:Work>
  </rdf:RDF>
 </metadata>
 <defs>
  <style type="text/css">*{stroke-linejoin: round; stroke-linecap: butt}</style>
 </defs>
 <g id="figure_1">
  <g id="patch_1">
   <path d="M 0 324 
L 792 324 
L 792 0 
L 0 0 
z
" style="fill: #ffffff"/>
  </g>
  <g id="axes_1">
   <g id="patch_2">
    <path d="M 60.922344 242.997656 
L 380.841464 242.997656 
L 380.841464 75.122812 
L 60.922344 75.122812 
z
" style="fill: #ffffff"/>
   </g>
   <g id="PathCollection_1">
    <defs>
     <path id="m547052bb69" d="M 0 2.5 
C 0.663008 2.5 1.29895 2.236584 1.767767 1.767767 
C 2.236584 1.29895 2.5 0.663008 2.5 0 
C 2.5 -0.663008 2.236584 -1.29895 1.767767 -1.767767 
C 1.29895 -2.236584 0.663008 -2.5 0 -2.5 
C -0.663008 -2.5 -1.29895 -2.236584 -1.767767 -1.767767 
C -2.236584 -1.29895 -2.5 -0.663008 -2.5 0 
C -2.5 0.663008 -2.236584 1.29895 -1.767767 1.767767 
C -1.29895 2.236584 -0.663008 2.5 0 2.5 
z
" style="stroke: #14696b; stroke-opacity: 0.75"/>
    </defs>
    <g clip-path="url(#p35b8f4be23)">
     <use xlink:href="#m547052bb69" x="102.470281" y="235.854393" style="fill: #14696b; fill-opacity: 0.75; stroke: #14696b; stroke-opacity: 0.75"/>
     <use xlink:href="#m547052bb69" x="109.741171" y="236.864134" style="fill: #14696b; fill-opacity: 0.75; stroke: #14696b; stroke-opacity: 0.75"/>
     <use xlink:href="#m547052bb69" x="117.01206" y="236.303047" style="fill: #14696b; fill-opacity: 0.75; stroke: #14696b; stroke-opacity: 0.75"/>
     <use xlink:href="#m547052bb69" x="124.282949" y="236.956121" style="fill: #14696b; fill-opacity: 0.75; stroke: #14696b; stroke-opacity: 0.75"/>
     <use xlink:href="#m547052bb69" x="131.553838" y="236.45276" style="fill: #14696b; fill-opacity: 0.75; stroke: #14696b; stroke-opacity: 0.75"/>
     <use xlink:href="#m547052bb69" x="102.470281" y="236.589536" style="fill: #14696b; fill-opacity: 0.75; stroke: #14696b; stroke-opacity: 0.75"/>
     <use xlink:href="#m547052bb69" x="109.741171" y="236.310973" style="fill: #14696b; fill-opacity: 0.75; stroke: #14696b; stroke-opacity: 0.75"/>
     <use xlink:href="#m547052bb69" x="117.01206" y="236.841087" style="fill: #14696b; fill-opacity: 0.75; stroke: #14696b; stroke-opacity: 0.75"/>
     <use xlink:href="#m547052bb69" x="124.282949" y="236.485719" style="fill: #14696b; fill-opacity: 0.75; stroke: #14696b; stroke-opacity: 0.75"/>
     <use xlink:href="#m547052bb69" x="131.553838" y="236.865338" style="fill: #14696b; fill-opacity: 0.75; stroke: #14696b; stroke-opacity: 0.75"/>
     <use xlink:href="#m547052bb69" x="102.470281" y="236.698079" style="fill: #14696b; fill-opacity: 0.75; stroke: #14696b; stroke-opacity: 0.75"/>
     <use xlink:href="#m547052bb69" x="109.741171" y="236.866213" style="fill: #14696b; fill-opacity: 0.75; stroke: #14696b; stroke-opacity: 0.75"/>
     <use xlink:href="#m547052bb69" x="117.01206" y="236.419115" style="fill: #14696b; fill-opacity: 0.75; stroke: #14696b; stroke-opacity: 0.75"/>
     <use xlink:href="#m547052bb69" x="124.282949" y="236.945126" style="fill: #14696b; fill-opacity: 0.75; stroke: #14696b; stroke-opacity: 0.75"/>
     <use xlink:href="#m547052bb69" x="131.553838" y="236.693772" style="fill: #14696b; fill-opacity: 0.75; stroke: #14696b; stroke-opacity: 0.75"/>
     <use xlink:href="#m547052bb69" x="102.470281" y="236.981324" style="fill: #14696b; fill-opacity: 0.75; stroke: #14696b; stroke-opacity: 0.75"/>
     <use xlink:href="#m547052bb69" x="109.741171" y="236.307109" style="fill: #14696b; fill-opacity: 0.75; stroke: #14696b; stroke-opacity: 0.75"/>
     <use xlink:href="#m547052bb69" x="117.01206" y="236.915177" style="fill: #14696b; fill-opacity: 0.75; stroke: #14696b; stroke-opacity: 0.75"/>
     <use xlink:href="#m547052bb69" x="124.282949" y="236.415017" style="fill: #14696b; fill-opacity: 0.75; stroke: #14696b; stroke-opacity: 0.75"/>
     <use xlink:href="#m547052bb69" x="131.553838" y="236.944656" style="fill: #14696b; fill-opacity: 0.75; stroke: #14696b; stroke-opacity: 0.75"/>
    </g>
   </g>
   <g id="PathCollection_2">
    <defs>
     <path id="m4f12629598" d="M 0 2.5 
C 0.663008 2.5 1.29895 2.236584 1.767767 1.767767 
C 2.236584 1.29895 2.5 0.663008 2.5 0 
C 2.5 -0.663008 2.236584 -1.29895 1.767767 -1.767767 
C 1.29895 -2.236584 0.663008 -2.5 0 -2.5 
C -0.663008 -2.5 -1.29895 -2.236584 -1.767767 -1.767767 
C -2.236584 -1.29895 -2.5 -0.663008 -2.5 0 
C -2.5 0.663008 -2.236584 1.29895 -1.767767 1.767767 
C -1.29895 2.236584 -0.663008 2.5 0 2.5 
z
" style="stroke: #9a6855; stroke-opacity: 0.75"/>
    </defs>
    <g clip-path="url(#p35b8f4be23)">
     <use xlink:href="#m4f12629598" x="310.20997" y="124.720218" style="fill: #9a6855; fill-opacity: 0.75; stroke: #9a6855; stroke-opacity: 0.75"/>
     <use xlink:href="#m4f12629598" x="317.480859" y="122.111201" style="fill: #9a6855; fill-opacity: 0.75; stroke: #9a6855; stroke-opacity: 0.75"/>
     <use xlink:href="#m4f12629598" x="324.751748" y="121.188636" style="fill: #9a6855; fill-opacity: 0.75; stroke: #9a6855; stroke-opacity: 0.75"/>
     <use xlink:href="#m4f12629598" x="332.022637" y="118.278244" style="fill: #9a6855; fill-opacity: 0.75; stroke: #9a6855; stroke-opacity: 0.75"/>
     <use xlink:href="#m4f12629598" x="339.293526" y="118.158212" style="fill: #9a6855; fill-opacity: 0.75; stroke: #9a6855; stroke-opacity: 0.75"/>
     <use xlink:href="#m4f12629598" x="310.20997" y="118.099706" style="fill: #9a6855; fill-opacity: 0.75; stroke: #9a6855; stroke-opacity: 0.75"/>
     <use xlink:href="#m4f12629598" x="317.480859" y="118.352221" style="fill: #9a6855; fill-opacity: 0.75; stroke: #9a6855; stroke-opacity: 0.75"/>
     <use xlink:href="#m4f12629598" x="324.751748" y="116.165904" style="fill: #9a6855; fill-opacity: 0.75; stroke: #9a6855; stroke-opacity: 0.75"/>
     <use xlink:href="#m4f12629598" x="332.022637" y="116.541865" style="fill: #9a6855; fill-opacity: 0.75; stroke: #9a6855; stroke-opacity: 0.75"/>
     <use xlink:href="#m4f12629598" x="339.293526" y="116.215371" style="fill: #9a6855; fill-opacity: 0.75; stroke: #9a6855; stroke-opacity: 0.75"/>
     <use xlink:href="#m4f12629598" x="310.20997" y="115.275006" style="fill: #9a6855; fill-opacity: 0.75; stroke: #9a6855; stroke-opacity: 0.75"/>
     <use xlink:href="#m4f12629598" x="317.480859" y="115.143999" style="fill: #9a6855; fill-opacity: 0.75; stroke: #9a6855; stroke-opacity: 0.75"/>
     <use xlink:href="#m4f12629598" x="324.751748" y="112.438926" style="fill: #9a6855; fill-opacity: 0.75; stroke: #9a6855; stroke-opacity: 0.75"/>
     <use xlink:href="#m4f12629598" x="332.022637" y="115.794225" style="fill: #9a6855; fill-opacity: 0.75; stroke: #9a6855; stroke-opacity: 0.75"/>
     <use xlink:href="#m4f12629598" x="339.293526" y="114.598652" style="fill: #9a6855; fill-opacity: 0.75; stroke: #9a6855; stroke-opacity: 0.75"/>
     <use xlink:href="#m4f12629598" x="310.20997" y="115.76452" style="fill: #9a6855; fill-opacity: 0.75; stroke: #9a6855; stroke-opacity: 0.75"/>
     <use xlink:href="#m4f12629598" x="317.480859" y="115.185324" style="fill: #9a6855; fill-opacity: 0.75; stroke: #9a6855; stroke-opacity: 0.75"/>
     <use xlink:href="#m4f12629598" x="324.751748" y="113.873904" style="fill: #9a6855; fill-opacity: 0.75; stroke: #9a6855; stroke-opacity: 0.75"/>
     <use xlink:href="#m4f12629598" x="332.022637" y="109.32445" style="fill: #9a6855; fill-opacity: 0.75; stroke: #9a6855; stroke-opacity: 0.75"/>
     <use xlink:href="#m4f12629598" x="339.293526" y="82.830361" style="fill: #9a6855; fill-opacity: 0.75; stroke: #9a6855; stroke-opacity: 0.75"/>
    </g>
   </g>
   <g id="matplotlib.axis_1">
    <g id="xtick_1">
     <g id="line2d_1">
      <defs>
       <path id="m62e5511504" d="M 0 0 
L 0 3.5 
" style="stroke: #000000; stroke-width: 0.8"/>
      </defs>
      <g>
       <use xlink:href="#m62e5511504" x="117.01206" y="242.997656" style="stroke: #000000; stroke-width: 0.8"/>
      </g>
     </g>
     <g id="text_1">
      <!-- Tessar -->
      <g transform="translate(101.401903 257.595312) scale(0.1 -0.1)">
       <defs>
        <path id="DejaVuSans-37" d="M -19 4666 
L 3928 4666 
L 3928 4134 
L 2272 4134 
L 2272 0 
L 1638 0 
L 1638 4134 
L -19 4134 
L -19 4666 
z
" transform="scale(0.015625)"/>
        <path id="DejaVuSans-48" d="M 3597 1894 
L 3597 1613 
L 953 1613 
Q 991 1019 1311 708 
Q 1631 397 2203 397 
Q 2534 397 2845 478 
Q 3156 559 3463 722 
L 3463 178 
Q 3153 47 2828 -22 
Q 2503 -91 2169 -91 
Q 1331 -91 842 396 
Q 353 884 353 1716 
Q 353 2575 817 3079 
Q 1281 3584 2069 3584 
Q 2775 3584 3186 3129 
Q 3597 2675 3597 1894 
z
M 3022 2063 
Q 3016 2534 2758 2815 
Q 2500 3097 2075 3097 
Q 1594 3097 1305 2825 
Q 1016 2553 972 2059 
L 3022 2063 
z
" transform="scale(0.015625)"/>
        <path id="DejaVuSans-56" d="M 2834 3397 
L 2834 2853 
Q 2591 2978 2328 3040 
Q 2066 3103 1784 3103 
Q 1356 3103 1142 2972 
Q 928 2841 928 2578 
Q 928 2378 1081 2264 
Q 1234 2150 1697 2047 
L 1894 2003 
Q 2506 1872 2764 1633 
Q 3022 1394 3022 966 
Q 3022 478 2636 193 
Q 2250 -91 1575 -91 
Q 1294 -91 989 -36 
Q 684 19 347 128 
L 347 722 
Q 666 556 975 473 
Q 1284 391 1588 391 
Q 1994 391 2212 530 
Q 2431 669 2431 922 
Q 2431 1156 2273 1281 
Q 2116 1406 1581 1522 
L 1381 1569 
Q 847 1681 609 1914 
Q 372 2147 372 2553 
Q 372 3047 722 3315 
Q 1072 3584 1716 3584 
Q 2034 3584 2315 3537 
Q 2597 3491 2834 3397 
z
" transform="scale(0.015625)"/>
        <path id="DejaVuSans-44" d="M 2194 1759 
Q 1497 1759 1228 1600 
Q 959 1441 959 1056 
Q 959 750 1161 570 
Q 1363 391 1709 391 
Q 2188 391 2477 730 
Q 2766 1069 2766 1631 
L 2766 1759 
L 2194 1759 
z
M 3341 1997 
L 3341 0 
L 2766 0 
L 2766 531 
Q 2569 213 2275 61 
Q 1981 -91 1556 -91 
Q 1019 -91 701 211 
Q 384 513 384 1019 
Q 384 1609 779 1909 
Q 1175 2209 1959 2209 
L 2766 2209 
L 2766 2266 
Q 2766 2663 2505 2880 
Q 2244 3097 1772 3097 
Q 1472 3097 1187 3025 
Q 903 2953 641 2809 
L 641 3341 
Q 956 3463 1253 3523 
Q 1550 3584 1831 3584 
Q 2591 3584 2966 3190 
Q 3341 2797 3341 1997 
z
" transform="scale(0.015625)"/>
        <path id="DejaVuSans-55" d="M 2631 2963 
Q 2534 3019 2420 3045 
Q 2306 3072 2169 3072 
Q 1681 3072 1420 2755 
Q 1159 2438 1159 1844 
L 1159 0 
L 581 0 
L 581 3500 
L 1159 3500 
L 1159 2956 
Q 1341 3275 1631 3429 
Q 1922 3584 2338 3584 
Q 2397 3584 2469 3576 
Q 2541 3569 2628 3553 
L 2631 2963 
z
" transform="scale(0.015625)"/>
       </defs>
       <use xlink:href="#DejaVuSans-37"/>
       <use xlink:href="#DejaVuSans-48" transform="translate(44.09375 0)"/>
       <use xlink:href="#DejaVuSans-56" transform="translate(105.625 0)"/>
       <use xlink:href="#DejaVuSans-56" transform="translate(157.71875 0)"/>
       <use xlink:href="#DejaVuSans-44" transform="translate(209.8125 0)"/>
       <use xlink:href="#DejaVuSans-55" transform="translate(271.09375 0)"/>
      </g>
     </g>
    </g>
    <g id="xtick_2">
     <g id="line2d_2">
      <g>
       <use xlink:href="#m62e5511504" x="324.751748" y="242.997656" style="stroke: #000000; stroke-width: 0.8"/>
      </g>
     </g>
     <g id="text_2">
      <!-- getCards reference -->
      <g transform="translate(276.774404 257.596094) scale(0.1 -0.1)">
       <defs>
        <path id="DejaVuSans-4a" d="M 2906 1791 
Q 2906 2416 2648 2759 
Q 2391 3103 1925 3103 
Q 1463 3103 1205 2759 
Q 947 2416 947 1791 
Q 947 1169 1205 825 
Q 1463 481 1925 481 
Q 2391 481 2648 825 
Q 2906 1169 2906 1791 
z
M 3481 434 
Q 3481 -459 3084 -895 
Q 2688 -1331 1869 -1331 
Q 1566 -1331 1297 -1286 
Q 1028 -1241 775 -1147 
L 775 -588 
Q 1028 -725 1275 -790 
Q 1522 -856 1778 -856 
Q 2344 -856 2625 -561 
Q 2906 -266 2906 331 
L 2906 616 
Q 2728 306 2450 153 
Q 2172 0 1784 0 
Q 1141 0 747 490 
Q 353 981 353 1791 
Q 353 2603 747 3093 
Q 1141 3584 1784 3584 
Q 2172 3584 2450 3431 
Q 2728 3278 2906 2969 
L 2906 3500 
L 3481 3500 
L 3481 434 
z
" transform="scale(0.015625)"/>
        <path id="DejaVuSans-57" d="M 1172 4494 
L 1172 3500 
L 2356 3500 
L 2356 3053 
L 1172 3053 
L 1172 1153 
Q 1172 725 1289 603 
Q 1406 481 1766 481 
L 2356 481 
L 2356 0 
L 1766 0 
Q 1100 0 847 248 
Q 594 497 594 1153 
L 594 3053 
L 172 3053 
L 172 3500 
L 594 3500 
L 594 4494 
L 1172 4494 
z
" transform="scale(0.015625)"/>
        <path id="DejaVuSans-26" d="M 4122 4306 
L 4122 3641 
Q 3803 3938 3442 4084 
Q 3081 4231 2675 4231 
Q 1875 4231 1450 3742 
Q 1025 3253 1025 2328 
Q 1025 1406 1450 917 
Q 1875 428 2675 428 
Q 3081 428 3442 575 
Q 3803 722 4122 1019 
L 4122 359 
Q 3791 134 3420 21 
Q 3050 -91 2638 -91 
Q 1578 -91 968 557 
Q 359 1206 359 2328 
Q 359 3453 968 4101 
Q 1578 4750 2638 4750 
Q 3056 4750 3426 4639 
Q 3797 4528 4122 4306 
z
" transform="scale(0.015625)"/>
        <path id="DejaVuSans-47" d="M 2906 2969 
L 2906 4863 
L 3481 4863 
L 3481 0 
L 2906 0 
L 2906 525 
Q 2725 213 2448 61 
Q 2172 -91 1784 -91 
Q 1150 -91 751 415 
Q 353 922 353 1747 
Q 353 2572 751 3078 
Q 1150 3584 1784 3584 
Q 2172 3584 2448 3432 
Q 2725 3281 2906 2969 
z
M 947 1747 
Q 947 1113 1208 752 
Q 1469 391 1925 391 
Q 2381 391 2643 752 
Q 2906 1113 2906 1747 
Q 2906 2381 2643 2742 
Q 2381 3103 1925 3103 
Q 1469 3103 1208 2742 
Q 947 2381 947 1747 
z
" transform="scale(0.015625)"/>
        <path id="DejaVuSans-3" transform="scale(0.015625)"/>
        <path id="DejaVuSans-49" d="M 2375 4863 
L 2375 4384 
L 1825 4384 
Q 1516 4384 1395 4259 
Q 1275 4134 1275 3809 
L 1275 3500 
L 2222 3500 
L 2222 3053 
L 1275 3053 
L 1275 0 
L 697 0 
L 697 3053 
L 147 3053 
L 147 3500 
L 697 3500 
L 697 3744 
Q 697 4328 969 4595 
Q 1241 4863 1831 4863 
L 2375 4863 
z
" transform="scale(0.015625)"/>
        <path id="DejaVuSans-51" d="M 3513 2113 
L 3513 0 
L 2938 0 
L 2938 2094 
Q 2938 2591 2744 2837 
Q 2550 3084 2163 3084 
Q 1697 3084 1428 2787 
Q 1159 2491 1159 1978 
L 1159 0 
L 581 0 
L 581 3500 
L 1159 3500 
L 1159 2956 
Q 1366 3272 1645 3428 
Q 1925 3584 2291 3584 
Q 2894 3584 3203 3211 
Q 3513 2838 3513 2113 
z
" transform="scale(0.015625)"/>
        <path id="DejaVuSans-46" d="M 3122 3366 
L 3122 2828 
Q 2878 2963 2633 3030 
Q 2388 3097 2138 3097 
Q 1578 3097 1268 2742 
Q 959 2388 959 1747 
Q 959 1106 1268 751 
Q 1578 397 2138 397 
Q 2388 397 2633 464 
Q 2878 531 3122 666 
L 3122 134 
Q 2881 22 2623 -34 
Q 2366 -91 2075 -91 
Q 1284 -91 818 406 
Q 353 903 353 1747 
Q 353 2603 823 3093 
Q 1294 3584 2113 3584 
Q 2378 3584 2631 3529 
Q 2884 3475 3122 3366 
z
" transform="scale(0.015625)"/>
       </defs>
       <use xlink:href="#DejaVuSans-4a"/>
       <use xlink:href="#DejaVuSans-48" transform="translate(63.484375 0)"/>
       <use xlink:href="#DejaVuSans-57" transform="translate(125.015625 0)"/>
       <use xlink:href="#DejaVuSans-26" transform="translate(164.21875 0)"/>
       <use xlink:href="#DejaVuSans-44" transform="translate(234.046875 0)"/>
       <use xlink:href="#DejaVuSans-55" transform="translate(295.328125 0)"/>
       <use xlink:href="#DejaVuSans-47" transform="translate(334.6875 0)"/>
       <use xlink:href="#DejaVuSans-56" transform="translate(398.171875 0)"/>
       <use xlink:href="#DejaVuSans-3" transform="translate(450.265625 0)"/>
       <use xlink:href="#DejaVuSans-55" transform="translate(482.046875 0)"/>
       <use xlink:href="#DejaVuSans-48" transform="translate(520.953125 0)"/>
       <use xlink:href="#DejaVuSans-49" transform="translate(582.484375 0)"/>
       <use xlink:href="#DejaVuSans-48" transform="translate(617.6875 0)"/>
       <use xlink:href="#DejaVuSans-55" transform="translate(679.21875 0)"/>
       <use xlink:href="#DejaVuSans-48" transform="translate(718.125 0)"/>
       <use xlink:href="#DejaVuSans-51" transform="translate(779.65625 0)"/>
       <use xlink:href="#DejaVuSans-46" transform="translate(843.03125 0)"/>
       <use xlink:href="#DejaVuSans-48" transform="translate(898.015625 0)"/>
      </g>
     </g>
    </g>
   </g>
   <g id="matplotlib.axis_2">
    <g id="ytick_1">
     <g id="line2d_3">
      <path d="M 60.922344 242.997656 
L 380.841464 242.997656 
" clip-path="url(#p35b8f4be23)" style="fill: none; stroke: #b0b0b0; stroke-opacity: 0.2; stroke-width: 0.8; stroke-linecap: square"/>
     </g>
     <g id="line2d_4">
      <defs>
       <path id="md98101e669" d="M 0 0 
L -3.5 0 
" style="stroke: #000000; stroke-width: 0.8"/>
      </defs>
      <g>
       <use xlink:href="#md98101e669" x="60.922344" y="242.997656" style="stroke: #000000; stroke-width: 0.8"/>
      </g>
     </g>
     <g id="text_3">
      <!-- 0.0 -->
      <g transform="translate(38.019219 246.796484) scale(0.1 -0.1)">
       <defs>
        <path id="DejaVuSans-13" d="M 2034 4250 
Q 1547 4250 1301 3770 
Q 1056 3291 1056 2328 
Q 1056 1369 1301 889 
Q 1547 409 2034 409 
Q 2525 409 2770 889 
Q 3016 1369 3016 2328 
Q 3016 3291 2770 3770 
Q 2525 4250 2034 4250 
z
M 2034 4750 
Q 2819 4750 3233 4129 
Q 3647 3509 3647 2328 
Q 3647 1150 3233 529 
Q 2819 -91 2034 -91 
Q 1250 -91 836 529 
Q 422 1150 422 2328 
Q 422 3509 836 4129 
Q 1250 4750 2034 4750 
z
" transform="scale(0.015625)"/>
        <path id="DejaVuSans-11" d="M 684 794 
L 1344 794 
L 1344 0 
L 684 0 
L 684 794 
z
" transform="scale(0.015625)"/>
       </defs>
       <use xlink:href="#DejaVuSans-13"/>
       <use xlink:href="#DejaVuSans-11" transform="translate(63.625 0)"/>
       <use xlink:href="#DejaVuSans-13" transform="translate(95.40625 0)"/>
      </g>
     </g>
    </g>
    <g id="ytick_2">
     <g id="line2d_5">
      <path d="M 60.922344 219.607763 
L 380.841464 219.607763 
" clip-path="url(#p35b8f4be23)" style="fill: none; stroke: #b0b0b0; stroke-opacity: 0.2; stroke-width: 0.8; stroke-linecap: square"/>
     </g>
     <g id="line2d_6">
      <g>
       <use xlink:href="#md98101e669" x="60.922344" y="219.607763" style="stroke: #000000; stroke-width: 0.8"/>
      </g>
     </g>
     <g id="text_4">
      <!-- 2.5 -->
      <g transform="translate(38.019219 223.406591) scale(0.1 -0.1)">
       <defs>
        <path id="DejaVuSans-15" d="M 1228 531 
L 3431 531 
L 3431 0 
L 469 0 
L 469 531 
Q 828 903 1448 1529 
Q 2069 2156 2228 2338 
Q 2531 2678 2651 2914 
Q 2772 3150 2772 3378 
Q 2772 3750 2511 3984 
Q 2250 4219 1831 4219 
Q 1534 4219 1204 4116 
Q 875 4013 500 3803 
L 500 4441 
Q 881 4594 1212 4672 
Q 1544 4750 1819 4750 
Q 2544 4750 2975 4387 
Q 3406 4025 3406 3419 
Q 3406 3131 3298 2873 
Q 3191 2616 2906 2266 
Q 2828 2175 2409 1742 
Q 1991 1309 1228 531 
z
" transform="scale(0.015625)"/>
        <path id="DejaVuSans-18" d="M 691 4666 
L 3169 4666 
L 3169 4134 
L 1269 4134 
L 1269 2991 
Q 1406 3038 1543 3061 
Q 1681 3084 1819 3084 
Q 2600 3084 3056 2656 
Q 3513 2228 3513 1497 
Q 3513 744 3044 326 
Q 2575 -91 1722 -91 
Q 1428 -91 1123 -41 
Q 819 9 494 109 
L 494 744 
Q 775 591 1075 516 
Q 1375 441 1709 441 
Q 2250 441 2565 725 
Q 2881 1009 2881 1497 
Q 2881 1984 2565 2268 
Q 2250 2553 1709 2553 
Q 1456 2553 1204 2497 
Q 953 2441 691 2322 
L 691 4666 
z
" transform="scale(0.015625)"/>
       </defs>
       <use xlink:href="#DejaVuSans-15"/>
       <use xlink:href="#DejaVuSans-11" transform="translate(63.625 0)"/>
       <use xlink:href="#DejaVuSans-18" transform="translate(95.40625 0)"/>
      </g>
     </g>
    </g>
    <g id="ytick_3">
     <g id="line2d_7">
      <path d="M 60.922344 196.21787 
L 380.841464 196.21787 
" clip-path="url(#p35b8f4be23)" style="fill: none; stroke: #b0b0b0; stroke-opacity: 0.2; stroke-width: 0.8; stroke-linecap: square"/>
     </g>
     <g id="line2d_8">
      <g>
       <use xlink:href="#md98101e669" x="60.922344" y="196.21787" style="stroke: #000000; stroke-width: 0.8"/>
      </g>
     </g>
     <g id="text_5">
      <!-- 5.0 -->
      <g transform="translate(38.019219 200.016698) scale(0.1 -0.1)">
       <use xlink:href="#DejaVuSans-18"/>
       <use xlink:href="#DejaVuSans-11" transform="translate(63.625 0)"/>
       <use xlink:href="#DejaVuSans-13" transform="translate(95.40625 0)"/>
      </g>
     </g>
    </g>
    <g id="ytick_4">
     <g id="line2d_9">
      <path d="M 60.922344 172.827977 
L 380.841464 172.827977 
" clip-path="url(#p35b8f4be23)" style="fill: none; stroke: #b0b0b0; stroke-opacity: 0.2; stroke-width: 0.8; stroke-linecap: square"/>
     </g>
     <g id="line2d_10">
      <g>
       <use xlink:href="#md98101e669" x="60.922344" y="172.827977" style="stroke: #000000; stroke-width: 0.8"/>
      </g>
     </g>
     <g id="text_6">
      <!-- 7.5 -->
      <g transform="translate(38.019219 176.626805) scale(0.1 -0.1)">
       <defs>
        <path id="DejaVuSans-1a" d="M 525 4666 
L 3525 4666 
L 3525 4397 
L 1831 0 
L 1172 0 
L 2766 4134 
L 525 4134 
L 525 4666 
z
" transform="scale(0.015625)"/>
       </defs>
       <use xlink:href="#DejaVuSans-1a"/>
       <use xlink:href="#DejaVuSans-11" transform="translate(63.625 0)"/>
       <use xlink:href="#DejaVuSans-18" transform="translate(95.40625 0)"/>
      </g>
     </g>
    </g>
    <g id="ytick_5">
     <g id="line2d_11">
      <path d="M 60.922344 149.438084 
L 380.841464 149.438084 
" clip-path="url(#p35b8f4be23)" style="fill: none; stroke: #b0b0b0; stroke-opacity: 0.2; stroke-width: 0.8; stroke-linecap: square"/>
     </g>
     <g id="line2d_12">
      <g>
       <use xlink:href="#md98101e669" x="60.922344" y="149.438084" style="stroke: #000000; stroke-width: 0.8"/>
      </g>
     </g>
     <g id="text_7">
      <!-- 10.0 -->
      <g transform="translate(31.656719 153.236912) scale(0.1 -0.1)">
       <defs>
        <path id="DejaVuSans-14" d="M 794 531 
L 1825 531 
L 1825 4091 
L 703 3866 
L 703 4441 
L 1819 4666 
L 2450 4666 
L 2450 531 
L 3481 531 
L 3481 0 
L 794 0 
L 794 531 
z
" transform="scale(0.015625)"/>
       </defs>
       <use xlink:href="#DejaVuSans-14"/>
       <use xlink:href="#DejaVuSans-13" transform="translate(63.625 0)"/>
       <use xlink:href="#DejaVuSans-11" transform="translate(127.25 0)"/>
       <use xlink:href="#DejaVuSans-13" transform="translate(159.03125 0)"/>
      </g>
     </g>
    </g>
    <g id="ytick_6">
     <g id="line2d_13">
      <path d="M 60.922344 126.048191 
L 380.841464 126.048191 
" clip-path="url(#p35b8f4be23)" style="fill: none; stroke: #b0b0b0; stroke-opacity: 0.2; stroke-width: 0.8; stroke-linecap: square"/>
     </g>
     <g id="line2d_14">
      <g>
       <use xlink:href="#md98101e669" x="60.922344" y="126.048191" style="stroke: #000000; stroke-width: 0.8"/>
      </g>
     </g>
     <g id="text_8">
      <!-- 12.5 -->
      <g transform="translate(31.656719 129.847019) scale(0.1 -0.1)">
       <use xlink:href="#DejaVuSans-14"/>
       <use xlink:href="#DejaVuSans-15" transform="translate(63.625 0)"/>
       <use xlink:href="#DejaVuSans-11" transform="translate(127.25 0)"/>
       <use xlink:href="#DejaVuSans-18" transform="translate(159.03125 0)"/>
      </g>
     </g>
    </g>
    <g id="ytick_7">
     <g id="line2d_15">
      <path d="M 60.922344 102.658298 
L 380.841464 102.658298 
" clip-path="url(#p35b8f4be23)" style="fill: none; stroke: #b0b0b0; stroke-opacity: 0.2; stroke-width: 0.8; stroke-linecap: square"/>
     </g>
     <g id="line2d_16">
      <g>
       <use xlink:href="#md98101e669" x="60.922344" y="102.658298" style="stroke: #000000; stroke-width: 0.8"/>
      </g>
     </g>
     <g id="text_9">
      <!-- 15.0 -->
      <g transform="translate(31.656719 106.457126) scale(0.1 -0.1)">
       <use xlink:href="#DejaVuSans-14"/>
       <use xlink:href="#DejaVuSans-18" transform="translate(63.625 0)"/>
       <use xlink:href="#DejaVuSans-11" transform="translate(127.25 0)"/>
       <use xlink:href="#DejaVuSans-13" transform="translate(159.03125 0)"/>
      </g>
     </g>
    </g>
    <g id="ytick_8">
     <g id="line2d_17">
      <path d="M 60.922344 79.268405 
L 380.841464 79.268405 
" clip-path="url(#p35b8f4be23)" style="fill: none; stroke: #b0b0b0; stroke-opacity: 0.2; stroke-width: 0.8; stroke-linecap: square"/>
     </g>
     <g id="line2d_18">
      <g>
       <use xlink:href="#md98101e669" x="60.922344" y="79.268405" style="stroke: #000000; stroke-width: 0.8"/>
      </g>
     </g>
     <g id="text_10">
      <!-- 17.5 -->
      <g transform="translate(31.656719 83.067233) scale(0.1 -0.1)">
       <use xlink:href="#DejaVuSans-14"/>
       <use xlink:href="#DejaVuSans-1a" transform="translate(63.625 0)"/>
       <use xlink:href="#DejaVuSans-11" transform="translate(127.25 0)"/>
       <use xlink:href="#DejaVuSans-18" transform="translate(159.03125 0)"/>
      </g>
     </g>
    </g>
    <g id="text_11">
     <!-- Complete interactive display (seconds) -->
     <g transform="translate(25.254375 256.867266) rotate(-90) scale(0.1 -0.1)">
      <defs>
       <path id="DejaVuSans-52" d="M 1959 3097 
Q 1497 3097 1228 2736 
Q 959 2375 959 1747 
Q 959 1119 1226 758 
Q 1494 397 1959 397 
Q 2419 397 2687 759 
Q 2956 1122 2956 1747 
Q 2956 2369 2687 2733 
Q 2419 3097 1959 3097 
z
M 1959 3584 
Q 2709 3584 3137 3096 
Q 3566 2609 3566 1747 
Q 3566 888 3137 398 
Q 2709 -91 1959 -91 
Q 1206 -91 779 398 
Q 353 888 353 1747 
Q 353 2609 779 3096 
Q 1206 3584 1959 3584 
z
" transform="scale(0.015625)"/>
       <path id="DejaVuSans-50" d="M 3328 2828 
Q 3544 3216 3844 3400 
Q 4144 3584 4550 3584 
Q 5097 3584 5394 3201 
Q 5691 2819 5691 2113 
L 5691 0 
L 5113 0 
L 5113 2094 
Q 5113 2597 4934 2840 
Q 4756 3084 4391 3084 
Q 3944 3084 3684 2787 
Q 3425 2491 3425 1978 
L 3425 0 
L 2847 0 
L 2847 2094 
Q 2847 2600 2669 2842 
Q 2491 3084 2119 3084 
Q 1678 3084 1418 2786 
Q 1159 2488 1159 1978 
L 1159 0 
L 581 0 
L 581 3500 
L 1159 3500 
L 1159 2956 
Q 1356 3278 1631 3431 
Q 1906 3584 2284 3584 
Q 2666 3584 2933 3390 
Q 3200 3197 3328 2828 
z
" transform="scale(0.015625)"/>
       <path id="DejaVuSans-53" d="M 1159 525 
L 1159 -1331 
L 581 -1331 
L 581 3500 
L 1159 3500 
L 1159 2969 
Q 1341 3281 1617 3432 
Q 1894 3584 2278 3584 
Q 2916 3584 3314 3078 
Q 3713 2572 3713 1747 
Q 3713 922 3314 415 
Q 2916 -91 2278 -91 
Q 1894 -91 1617 61 
Q 1341 213 1159 525 
z
M 3116 1747 
Q 3116 2381 2855 2742 
Q 2594 3103 2138 3103 
Q 1681 3103 1420 2742 
Q 1159 2381 1159 1747 
Q 1159 1113 1420 752 
Q 1681 391 2138 391 
Q 2594 391 2855 752 
Q 3116 1113 3116 1747 
z
" transform="scale(0.015625)"/>
       <path id="DejaVuSans-4f" d="M 603 4863 
L 1178 4863 
L 1178 0 
L 603 0 
L 603 4863 
z
" transform="scale(0.015625)"/>
       <path id="DejaVuSans-4c" d="M 603 3500 
L 1178 3500 
L 1178 0 
L 603 0 
L 603 3500 
z
M 603 4863 
L 1178 4863 
L 1178 4134 
L 603 4134 
L 603 4863 
z
" transform="scale(0.015625)"/>
       <path id="DejaVuSans-59" d="M 191 3500 
L 800 3500 
L 1894 563 
L 2988 3500 
L 3597 3500 
L 2284 0 
L 1503 0 
L 191 3500 
z
" transform="scale(0.015625)"/>
       <path id="DejaVuSans-5c" d="M 2059 -325 
Q 1816 -950 1584 -1140 
Q 1353 -1331 966 -1331 
L 506 -1331 
L 506 -850 
L 844 -850 
Q 1081 -850 1212 -737 
Q 1344 -625 1503 -206 
L 1606 56 
L 191 3500 
L 800 3500 
L 1894 763 
L 2988 3500 
L 3597 3500 
L 2059 -325 
z
" transform="scale(0.015625)"/>
       <path id="DejaVuSans-b" d="M 1984 4856 
Q 1566 4138 1362 3434 
Q 1159 2731 1159 2009 
Q 1159 1288 1364 580 
Q 1569 -128 1984 -844 
L 1484 -844 
Q 1016 -109 783 600 
Q 550 1309 550 2009 
Q 550 2706 781 3412 
Q 1013 4119 1484 4856 
L 1984 4856 
z
" transform="scale(0.015625)"/>
       <path id="DejaVuSans-c" d="M 513 4856 
L 1013 4856 
Q 1481 4119 1714 3412 
Q 1947 2706 1947 2009 
Q 1947 1309 1714 600 
Q 1481 -109 1013 -844 
L 513 -844 
Q 928 -128 1133 580 
Q 1338 1288 1338 2009 
Q 1338 2731 1133 3434 
Q 928 4138 513 4856 
z
" transform="scale(0.015625)"/>
      </defs>
      <use xlink:href="#DejaVuSans-26"/>
      <use xlink:href="#DejaVuSans-52" transform="translate(69.828125 0)"/>
      <use xlink:href="#DejaVuSans-50" transform="translate(131.015625 0)"/>
      <use xlink:href="#DejaVuSans-53" transform="translate(228.421875 0)"/>
      <use xlink:href="#DejaVuSans-4f" transform="translate(291.90625 0)"/>
      <use xlink:href="#DejaVuSans-48" transform="translate(319.6875 0)"/>
      <use xlink:href="#DejaVuSans-57" transform="translate(381.21875 0)"/>
      <use xlink:href="#DejaVuSans-48" transform="translate(420.421875 0)"/>
      <use xlink:href="#DejaVuSans-3" transform="translate(481.953125 0)"/>
      <use xlink:href="#DejaVuSans-4c" transform="translate(513.734375 0)"/>
      <use xlink:href="#DejaVuSans-51" transform="translate(541.515625 0)"/>
      <use xlink:href="#DejaVuSans-57" transform="translate(604.890625 0)"/>
      <use xlink:href="#DejaVuSans-48" transform="translate(644.09375 0)"/>
      <use xlink:href="#DejaVuSans-55" transform="translate(705.625 0)"/>
      <use xlink:href="#DejaVuSans-44" transform="translate(746.734375 0)"/>
      <use xlink:href="#DejaVuSans-46" transform="translate(808.015625 0)"/>
      <use xlink:href="#DejaVuSans-57" transform="translate(863 0)"/>
      <use xlink:href="#DejaVuSans-4c" transform="translate(902.203125 0)"/>
      <use xlink:href="#DejaVuSans-59" transform="translate(929.984375 0)"/>
      <use xlink:href="#DejaVuSans-48" transform="translate(989.171875 0)"/>
      <use xlink:href="#DejaVuSans-3" transform="translate(1050.703125 0)"/>
      <use xlink:href="#DejaVuSans-47" transform="translate(1082.484375 0)"/>
      <use xlink:href="#DejaVuSans-4c" transform="translate(1145.96875 0)"/>
      <use xlink:href="#DejaVuSans-56" transform="translate(1173.75 0)"/>
      <use xlink:href="#DejaVuSans-53" transform="translate(1225.84375 0)"/>
      <use xlink:href="#DejaVuSans-4f" transform="translate(1289.328125 0)"/>
      <use xlink:href="#DejaVuSans-44" transform="translate(1317.109375 0)"/>
      <use xlink:href="#DejaVuSans-5c" transform="translate(1378.390625 0)"/>
      <use xlink:href="#DejaVuSans-3" transform="translate(1437.578125 0)"/>
      <use xlink:href="#DejaVuSans-b" transform="translate(1469.359375 0)"/>
      <use xlink:href="#DejaVuSans-56" transform="translate(1508.375 0)"/>
      <use xlink:href="#DejaVuSans-48" transform="translate(1560.46875 0)"/>
      <use xlink:href="#DejaVuSans-46" transform="translate(1622 0)"/>
      <use xlink:href="#DejaVuSans-52" transform="translate(1676.984375 0)"/>
      <use xlink:href="#DejaVuSans-51" transform="translate(1738.171875 0)"/>
      <use xlink:href="#DejaVuSans-47" transform="translate(1801.546875 0)"/>
      <use xlink:href="#DejaVuSans-56" transform="translate(1865.03125 0)"/>
      <use xlink:href="#DejaVuSans-c" transform="translate(1917.125 0)"/>
     </g>
    </g>
   </g>
   <g id="line2d_19">
    <path d="M 75.464122 236.695926 
L 158.559997 236.695926 
" clip-path="url(#p35b8f4be23)" style="fill: none; stroke: #14696b; stroke-width: 3; stroke-linecap: square"/>
   </g>
   <g id="line2d_20">
    <path d="M 283.20381 115.980064 
L 366.299686 115.980064 
" clip-path="url(#p35b8f4be23)" style="fill: none; stroke: #9a6855; stroke-width: 3; stroke-linecap: square"/>
   </g>
   <g id="patch_3">
    <path d="M 60.922344 242.997656 
L 60.922344 75.122812 
" style="fill: none; stroke: #000000; stroke-width: 0.8; stroke-linejoin: miter; stroke-linecap: square"/>
   </g>
   <g id="patch_4">
    <path d="M 60.922344 242.997656 
L 380.841464 242.997656 
" style="fill: none; stroke: #000000; stroke-width: 0.8; stroke-linejoin: miter; stroke-linecap: square"/>
   </g>
   <g id="text_12">
    <!-- 20 correct stable-data reads per variant -->
    <g transform="translate(60.922344 69.122812) scale(0.12 -0.12)">
     <defs>
      <path id="DejaVuSans-Bold-15" d="M 1844 884 
L 3897 884 
L 3897 0 
L 506 0 
L 506 884 
L 2209 2388 
Q 2438 2594 2547 2791 
Q 2656 2988 2656 3200 
Q 2656 3528 2436 3728 
Q 2216 3928 1850 3928 
Q 1569 3928 1234 3808 
Q 900 3688 519 3450 
L 519 4475 
Q 925 4609 1322 4679 
Q 1719 4750 2100 4750 
Q 2938 4750 3402 4381 
Q 3866 4013 3866 3353 
Q 3866 2972 3669 2642 
Q 3472 2313 2841 1759 
L 1844 884 
z
" transform="scale(0.015625)"/>
      <path id="DejaVuSans-Bold-13" d="M 2944 2338 
Q 2944 3213 2780 3570 
Q 2616 3928 2228 3928 
Q 1841 3928 1675 3570 
Q 1509 3213 1509 2338 
Q 1509 1453 1675 1090 
Q 1841 728 2228 728 
Q 2613 728 2778 1090 
Q 2944 1453 2944 2338 
z
M 4147 2328 
Q 4147 1169 3647 539 
Q 3147 -91 2228 -91 
Q 1306 -91 806 539 
Q 306 1169 306 2328 
Q 306 3491 806 4120 
Q 1306 4750 2228 4750 
Q 3147 4750 3647 4120 
Q 4147 3491 4147 2328 
z
" transform="scale(0.015625)"/>
      <path id="DejaVuSans-Bold-3" transform="scale(0.015625)"/>
      <path id="DejaVuSans-Bold-46" d="M 3366 3391 
L 3366 2478 
Q 3138 2634 2908 2709 
Q 2678 2784 2431 2784 
Q 1963 2784 1702 2511 
Q 1441 2238 1441 1747 
Q 1441 1256 1702 982 
Q 1963 709 2431 709 
Q 2694 709 2930 787 
Q 3166 866 3366 1019 
L 3366 103 
Q 3103 6 2833 -42 
Q 2563 -91 2291 -91 
Q 1344 -91 809 395 
Q 275 881 275 1747 
Q 275 2613 809 3098 
Q 1344 3584 2291 3584 
Q 2566 3584 2833 3536 
Q 3100 3488 3366 3391 
z
" transform="scale(0.015625)"/>
      <path id="DejaVuSans-Bold-52" d="M 2203 2784 
Q 1831 2784 1636 2517 
Q 1441 2250 1441 1747 
Q 1441 1244 1636 976 
Q 1831 709 2203 709 
Q 2569 709 2762 976 
Q 2956 1244 2956 1747 
Q 2956 2250 2762 2517 
Q 2569 2784 2203 2784 
z
M 2203 3584 
Q 3106 3584 3614 3096 
Q 4122 2609 4122 1747 
Q 4122 884 3614 396 
Q 3106 -91 2203 -91 
Q 1297 -91 786 396 
Q 275 884 275 1747 
Q 275 2609 786 3096 
Q 1297 3584 2203 3584 
z
" transform="scale(0.015625)"/>
      <path id="DejaVuSans-Bold-55" d="M 3138 2547 
Q 2991 2616 2845 2648 
Q 2700 2681 2553 2681 
Q 2122 2681 1889 2404 
Q 1656 2128 1656 1613 
L 1656 0 
L 538 0 
L 538 3500 
L 1656 3500 
L 1656 2925 
Q 1872 3269 2151 3426 
Q 2431 3584 2822 3584 
Q 2878 3584 2943 3579 
Q 3009 3575 3134 3559 
L 3138 2547 
z
" transform="scale(0.015625)"/>
      <path id="DejaVuSans-Bold-48" d="M 4031 1759 
L 4031 1441 
L 1416 1441 
Q 1456 1047 1700 850 
Q 1944 653 2381 653 
Q 2734 653 3104 758 
Q 3475 863 3866 1075 
L 3866 213 
Q 3469 63 3072 -14 
Q 2675 -91 2278 -91 
Q 1328 -91 801 392 
Q 275 875 275 1747 
Q 275 2603 792 3093 
Q 1309 3584 2216 3584 
Q 3041 3584 3536 3087 
Q 4031 2591 4031 1759 
z
M 2881 2131 
Q 2881 2450 2695 2645 
Q 2509 2841 2209 2841 
Q 1884 2841 1681 2658 
Q 1478 2475 1428 2131 
L 2881 2131 
z
" transform="scale(0.015625)"/>
      <path id="DejaVuSans-Bold-57" d="M 1759 4494 
L 1759 3500 
L 2913 3500 
L 2913 2700 
L 1759 2700 
L 1759 1216 
Q 1759 972 1856 886 
Q 1953 800 2241 800 
L 2816 800 
L 2816 0 
L 1856 0 
Q 1194 0 917 276 
Q 641 553 641 1216 
L 641 2700 
L 84 2700 
L 84 3500 
L 641 3500 
L 641 4494 
L 1759 4494 
z
" transform="scale(0.015625)"/>
      <path id="DejaVuSans-Bold-56" d="M 3272 3391 
L 3272 2541 
Q 2913 2691 2578 2766 
Q 2244 2841 1947 2841 
Q 1628 2841 1473 2761 
Q 1319 2681 1319 2516 
Q 1319 2381 1436 2309 
Q 1553 2238 1856 2203 
L 2053 2175 
Q 2913 2066 3209 1816 
Q 3506 1566 3506 1031 
Q 3506 472 3093 190 
Q 2681 -91 1863 -91 
Q 1516 -91 1145 -36 
Q 775 19 384 128 
L 384 978 
Q 719 816 1070 734 
Q 1422 653 1784 653 
Q 2113 653 2278 743 
Q 2444 834 2444 1013 
Q 2444 1163 2330 1236 
Q 2216 1309 1875 1350 
L 1678 1375 
Q 931 1469 631 1722 
Q 331 1975 331 2491 
Q 331 3047 712 3315 
Q 1094 3584 1881 3584 
Q 2191 3584 2531 3537 
Q 2872 3491 3272 3391 
z
" transform="scale(0.015625)"/>
      <path id="DejaVuSans-Bold-44" d="M 2106 1575 
Q 1756 1575 1579 1456 
Q 1403 1338 1403 1106 
Q 1403 894 1545 773 
Q 1688 653 1941 653 
Q 2256 653 2472 879 
Q 2688 1106 2688 1447 
L 2688 1575 
L 2106 1575 
z
M 3816 1997 
L 3816 0 
L 2688 0 
L 2688 519 
Q 2463 200 2181 54 
Q 1900 -91 1497 -91 
Q 953 -91 614 226 
Q 275 544 275 1050 
Q 275 1666 698 1953 
Q 1122 2241 2028 2241 
L 2688 2241 
L 2688 2328 
Q 2688 2594 2478 2717 
Q 2269 2841 1825 2841 
Q 1466 2841 1156 2769 
Q 847 2697 581 2553 
L 581 3406 
Q 941 3494 1303 3539 
Q 1666 3584 2028 3584 
Q 2975 3584 3395 3211 
Q 3816 2838 3816 1997 
z
" transform="scale(0.015625)"/>
      <path id="DejaVuSans-Bold-45" d="M 2400 722 
Q 2759 722 2948 984 
Q 3138 1247 3138 1747 
Q 3138 2247 2948 2509 
Q 2759 2772 2400 2772 
Q 2041 2772 1848 2508 
Q 1656 2244 1656 1747 
Q 1656 1250 1848 986 
Q 2041 722 2400 722 
z
M 1656 2988 
Q 1888 3294 2169 3439 
Q 2450 3584 2816 3584 
Q 3463 3584 3878 3070 
Q 4294 2556 4294 1747 
Q 4294 938 3878 423 
Q 3463 -91 2816 -91 
Q 2450 -91 2169 54 
Q 1888 200 1656 506 
L 1656 0 
L 538 0 
L 538 4863 
L 1656 4863 
L 1656 2988 
z
" transform="scale(0.015625)"/>
      <path id="DejaVuSans-Bold-4f" d="M 538 4863 
L 1656 4863 
L 1656 0 
L 538 0 
L 538 4863 
z
" transform="scale(0.015625)"/>
      <path id="DejaVuSans-Bold-10" d="M 347 2297 
L 2309 2297 
L 2309 1388 
L 347 1388 
L 347 2297 
z
" transform="scale(0.015625)"/>
      <path id="DejaVuSans-Bold-47" d="M 2919 2988 
L 2919 4863 
L 4044 4863 
L 4044 0 
L 2919 0 
L 2919 506 
Q 2688 197 2409 53 
Q 2131 -91 1766 -91 
Q 1119 -91 703 423 
Q 288 938 288 1747 
Q 288 2556 703 3070 
Q 1119 3584 1766 3584 
Q 2128 3584 2408 3439 
Q 2688 3294 2919 2988 
z
M 2181 722 
Q 2541 722 2730 984 
Q 2919 1247 2919 1747 
Q 2919 2247 2730 2509 
Q 2541 2772 2181 2772 
Q 1825 2772 1636 2509 
Q 1447 2247 1447 1747 
Q 1447 1247 1636 984 
Q 1825 722 2181 722 
z
" transform="scale(0.015625)"/>
      <path id="DejaVuSans-Bold-53" d="M 1656 506 
L 1656 -1331 
L 538 -1331 
L 538 3500 
L 1656 3500 
L 1656 2988 
Q 1888 3294 2169 3439 
Q 2450 3584 2816 3584 
Q 3463 3584 3878 3070 
Q 4294 2556 4294 1747 
Q 4294 938 3878 423 
Q 3463 -91 2816 -91 
Q 2450 -91 2169 54 
Q 1888 200 1656 506 
z
M 2400 2772 
Q 2041 2772 1848 2508 
Q 1656 2244 1656 1747 
Q 1656 1250 1848 986 
Q 2041 722 2400 722 
Q 2759 722 2948 984 
Q 3138 1247 3138 1747 
Q 3138 2247 2948 2509 
Q 2759 2772 2400 2772 
z
" transform="scale(0.015625)"/>
      <path id="DejaVuSans-Bold-59" d="M 97 3500 
L 1216 3500 
L 2088 1081 
L 2956 3500 
L 4078 3500 
L 2700 0 
L 1472 0 
L 97 3500 
z
" transform="scale(0.015625)"/>
      <path id="DejaVuSans-Bold-4c" d="M 538 3500 
L 1656 3500 
L 1656 0 
L 538 0 
L 538 3500 
z
M 538 4863 
L 1656 4863 
L 1656 3950 
L 538 3950 
L 538 4863 
z
" transform="scale(0.015625)"/>
      <path id="DejaVuSans-Bold-51" d="M 4056 2131 
L 4056 0 
L 2931 0 
L 2931 347 
L 2931 1631 
Q 2931 2084 2911 2256 
Q 2891 2428 2841 2509 
Q 2775 2619 2662 2680 
Q 2550 2741 2406 2741 
Q 2056 2741 1856 2470 
Q 1656 2200 1656 1722 
L 1656 0 
L 538 0 
L 538 3500 
L 1656 3500 
L 1656 2988 
Q 1909 3294 2193 3439 
Q 2478 3584 2822 3584 
Q 3428 3584 3742 3212 
Q 4056 2841 4056 2131 
z
" transform="scale(0.015625)"/>
     </defs>
     <use xlink:href="#DejaVuSans-Bold-15"/>
     <use xlink:href="#DejaVuSans-Bold-13" transform="translate(69.578125 0)"/>
     <use xlink:href="#DejaVuSans-Bold-3" transform="translate(139.15625 0)"/>
     <use xlink:href="#DejaVuSans-Bold-46" transform="translate(173.96875 0)"/>
     <use xlink:href="#DejaVuSans-Bold-52" transform="translate(233.25 0)"/>
     <use xlink:href="#DejaVuSans-Bold-55" transform="translate(301.953125 0)"/>
     <use xlink:href="#DejaVuSans-Bold-55" transform="translate(351.265625 0)"/>
     <use xlink:href="#DejaVuSans-Bold-48" transform="translate(400.578125 0)"/>
     <use xlink:href="#DejaVuSans-Bold-46" transform="translate(468.40625 0)"/>
     <use xlink:href="#DejaVuSans-Bold-57" transform="translate(527.6875 0)"/>
     <use xlink:href="#DejaVuSans-Bold-3" transform="translate(575.484375 0)"/>
     <use xlink:href="#DejaVuSans-Bold-56" transform="translate(610.296875 0)"/>
     <use xlink:href="#DejaVuSans-Bold-57" transform="translate(669.8125 0)"/>
     <use xlink:href="#DejaVuSans-Bold-44" transform="translate(717.609375 0)"/>
     <use xlink:href="#DejaVuSans-Bold-45" transform="translate(785.09375 0)"/>
     <use xlink:href="#DejaVuSans-Bold-4f" transform="translate(856.671875 0)"/>
     <use xlink:href="#DejaVuSans-Bold-48" transform="translate(890.953125 0)"/>
     <use xlink:href="#DejaVuSans-Bold-10" transform="translate(958.78125 0)"/>
     <use xlink:href="#DejaVuSans-Bold-47" transform="translate(1000.28125 0)"/>
     <use xlink:href="#DejaVuSans-Bold-44" transform="translate(1071.859375 0)"/>
     <use xlink:href="#DejaVuSans-Bold-57" transform="translate(1139.34375 0)"/>
     <use xlink:href="#DejaVuSans-Bold-44" transform="translate(1187.140625 0)"/>
     <use xlink:href="#DejaVuSans-Bold-3" transform="translate(1254.625 0)"/>
     <use xlink:href="#DejaVuSans-Bold-55" transform="translate(1289.4375 0)"/>
     <use xlink:href="#DejaVuSans-Bold-48" transform="translate(1338.75 0)"/>
     <use xlink:href="#DejaVuSans-Bold-44" transform="translate(1406.578125 0)"/>
     <use xlink:href="#DejaVuSans-Bold-47" transform="translate(1474.0625 0)"/>
     <use xlink:href="#DejaVuSans-Bold-56" transform="translate(1545.640625 0)"/>
     <use xlink:href="#DejaVuSans-Bold-3" transform="translate(1605.15625 0)"/>
     <use xlink:href="#DejaVuSans-Bold-53" transform="translate(1639.96875 0)"/>
     <use xlink:href="#DejaVuSans-Bold-48" transform="translate(1711.546875 0)"/>
     <use xlink:href="#DejaVuSans-Bold-55" transform="translate(1779.375 0)"/>
     <use xlink:href="#DejaVuSans-Bold-3" transform="translate(1828.6875 0)"/>
     <use xlink:href="#DejaVuSans-Bold-59" transform="translate(1863.5 0)"/>
     <use xlink:href="#DejaVuSans-Bold-44" transform="translate(1928.6875 0)"/>
     <use xlink:href="#DejaVuSans-Bold-55" transform="translate(1996.171875 0)"/>
     <use xlink:href="#DejaVuSans-Bold-4c" transform="translate(2045.484375 0)"/>
     <use xlink:href="#DejaVuSans-Bold-44" transform="translate(2079.765625 0)"/>
     <use xlink:href="#DejaVuSans-Bold-51" transform="translate(2147.25 0)"/>
     <use xlink:href="#DejaVuSans-Bold-57" transform="translate(2218.4375 0)"/>
    </g>
   </g>
  </g>
  <g id="axes_2">
   <g id="patch_5">
    <path d="M 453.36088 242.997656 
L 773.28 242.997656 
L 773.28 75.122812 
L 453.36088 75.122812 
z
" style="fill: #ffffff"/>
   </g>
   <g id="patch_6">
    <path d="M 453.36088 82.753487 
L 456.82667 82.753487 
L 456.82667 96.627441 
L 453.36088 96.627441 
z
" clip-path="url(#pe4e9e902f6)" style="fill: #14696b"/>
   </g>
   <g id="patch_7">
    <path d="M 453.36088 100.09593 
L 457.448735 100.09593 
L 457.448735 113.969884 
L 453.36088 113.969884 
z
" clip-path="url(#pe4e9e902f6)" style="fill: #14696b"/>
   </g>
   <g id="patch_8">
    <path d="M 453.36088 117.438372 
L 457.152514 117.438372 
L 457.152514 131.312326 
L 453.36088 131.312326 
z
" clip-path="url(#pe4e9e902f6)" style="fill: #14696b"/>
   </g>
   <g id="patch_9">
    <path d="M 453.36088 134.780815 
L 456.797048 134.780815 
L 456.797048 148.654769 
L 453.36088 148.654769 
z
" clip-path="url(#pe4e9e902f6)" style="fill: #14696b"/>
   </g>
   <g id="patch_10">
    <path d="M 453.36088 152.123257 
L 530.02298 152.123257 
L 530.02298 165.997211 
L 453.36088 165.997211 
z
" clip-path="url(#pe4e9e902f6)" style="fill: #14696b"/>
   </g>
   <g id="patch_11">
    <path d="M 453.36088 169.4657 
L 457.330247 169.4657 
L 457.330247 183.339654 
L 453.36088 183.339654 
z
" clip-path="url(#pe4e9e902f6)" style="fill: #14696b"/>
   </g>
   <g id="patch_12">
    <path d="M 453.36088 186.808142 
L 503.303809 186.808142 
L 503.303809 200.682096 
L 453.36088 200.682096 
z
" clip-path="url(#pe4e9e902f6)" style="fill: #14696b"/>
   </g>
   <g id="patch_13">
    <path d="M 453.36088 204.150585 
L 457.65609 204.150585 
L 457.65609 218.024539 
L 453.36088 218.024539 
z
" clip-path="url(#pe4e9e902f6)" style="fill: #14696b"/>
   </g>
   <g id="patch_14">
    <path d="M 453.36088 221.493028 
L 606.714702 221.493028 
L 606.714702 235.366982 
L 453.36088 235.366982 
z
" clip-path="url(#pe4e9e902f6)" style="fill: #14696b"/>
   </g>
   <g id="matplotlib.axis_3">
    <g id="xtick_3">
     <g id="line2d_21">
      <path d="M 453.36088 242.997656 
L 453.36088 75.122812 
" clip-path="url(#pe4e9e902f6)" style="fill: none; stroke: #b0b0b0; stroke-opacity: 0.2; stroke-width: 0.8; stroke-linecap: square"/>
     </g>
     <g id="line2d_22">
      <g>
       <use xlink:href="#m62e5511504" x="453.36088" y="242.997656" style="stroke: #000000; stroke-width: 0.8"/>
      </g>
     </g>
     <g id="text_13">
      <!-- 0 -->
      <g transform="translate(450.17963 257.595312) scale(0.1 -0.1)">
       <use xlink:href="#DejaVuSans-13"/>
      </g>
     </g>
    </g>
    <g id="xtick_4">
     <g id="line2d_23">
      <path d="M 512.605161 242.997656 
L 512.605161 75.122812 
" clip-path="url(#pe4e9e902f6)" style="fill: none; stroke: #b0b0b0; stroke-opacity: 0.2; stroke-width: 0.8; stroke-linecap: square"/>
     </g>
     <g id="line2d_24">
      <g>
       <use xlink:href="#m62e5511504" x="512.605161" y="242.997656" style="stroke: #000000; stroke-width: 0.8"/>
      </g>
     </g>
     <g id="text_14">
      <!-- 2 -->
      <g transform="translate(509.423911 257.595312) scale(0.1 -0.1)">
       <use xlink:href="#DejaVuSans-15"/>
      </g>
     </g>
    </g>
    <g id="xtick_5">
     <g id="line2d_25">
      <path d="M 571.849443 242.997656 
L 571.849443 75.122812 
" clip-path="url(#pe4e9e902f6)" style="fill: none; stroke: #b0b0b0; stroke-opacity: 0.2; stroke-width: 0.8; stroke-linecap: square"/>
     </g>
     <g id="line2d_26">
      <g>
       <use xlink:href="#m62e5511504" x="571.849443" y="242.997656" style="stroke: #000000; stroke-width: 0.8"/>
      </g>
     </g>
     <g id="text_15">
      <!-- 4 -->
      <g transform="translate(568.668193 257.595312) scale(0.1 -0.1)">
       <defs>
        <path id="DejaVuSans-17" d="M 2419 4116 
L 825 1625 
L 2419 1625 
L 2419 4116 
z
M 2253 4666 
L 3047 4666 
L 3047 1625 
L 3713 1625 
L 3713 1100 
L 3047 1100 
L 3047 0 
L 2419 0 
L 2419 1100 
L 313 1100 
L 313 1709 
L 2253 4666 
z
" transform="scale(0.015625)"/>
       </defs>
       <use xlink:href="#DejaVuSans-17"/>
      </g>
     </g>
    </g>
    <g id="xtick_6">
     <g id="line2d_27">
      <path d="M 631.093724 242.997656 
L 631.093724 75.122812 
" clip-path="url(#pe4e9e902f6)" style="fill: none; stroke: #b0b0b0; stroke-opacity: 0.2; stroke-width: 0.8; stroke-linecap: square"/>
     </g>
     <g id="line2d_28">
      <g>
       <use xlink:href="#m62e5511504" x="631.093724" y="242.997656" style="stroke: #000000; stroke-width: 0.8"/>
      </g>
     </g>
     <g id="text_16">
      <!-- 6 -->
      <g transform="translate(627.912474 257.595312) scale(0.1 -0.1)">
       <defs>
        <path id="DejaVuSans-19" d="M 2113 2584 
Q 1688 2584 1439 2293 
Q 1191 2003 1191 1497 
Q 1191 994 1439 701 
Q 1688 409 2113 409 
Q 2538 409 2786 701 
Q 3034 994 3034 1497 
Q 3034 2003 2786 2293 
Q 2538 2584 2113 2584 
z
M 3366 4563 
L 3366 3988 
Q 3128 4100 2886 4159 
Q 2644 4219 2406 4219 
Q 1781 4219 1451 3797 
Q 1122 3375 1075 2522 
Q 1259 2794 1537 2939 
Q 1816 3084 2150 3084 
Q 2853 3084 3261 2657 
Q 3669 2231 3669 1497 
Q 3669 778 3244 343 
Q 2819 -91 2113 -91 
Q 1303 -91 875 529 
Q 447 1150 447 2328 
Q 447 3434 972 4092 
Q 1497 4750 2381 4750 
Q 2619 4750 2861 4703 
Q 3103 4656 3366 4563 
z
" transform="scale(0.015625)"/>
       </defs>
       <use xlink:href="#DejaVuSans-19"/>
      </g>
     </g>
    </g>
    <g id="xtick_7">
     <g id="line2d_29">
      <path d="M 690.338006 242.997656 
L 690.338006 75.122812 
" clip-path="url(#pe4e9e902f6)" style="fill: none; stroke: #b0b0b0; stroke-opacity: 0.2; stroke-width: 0.8; stroke-linecap: square"/>
     </g>
     <g id="line2d_30">
      <g>
       <use xlink:href="#m62e5511504" x="690.338006" y="242.997656" style="stroke: #000000; stroke-width: 0.8"/>
      </g>
     </g>
     <g id="text_17">
      <!-- 8 -->
      <g transform="translate(687.156756 257.595312) scale(0.1 -0.1)">
       <defs>
        <path id="DejaVuSans-1b" d="M 2034 2216 
Q 1584 2216 1326 1975 
Q 1069 1734 1069 1313 
Q 1069 891 1326 650 
Q 1584 409 2034 409 
Q 2484 409 2743 651 
Q 3003 894 3003 1313 
Q 3003 1734 2745 1975 
Q 2488 2216 2034 2216 
z
M 1403 2484 
Q 997 2584 770 2862 
Q 544 3141 544 3541 
Q 544 4100 942 4425 
Q 1341 4750 2034 4750 
Q 2731 4750 3128 4425 
Q 3525 4100 3525 3541 
Q 3525 3141 3298 2862 
Q 3072 2584 2669 2484 
Q 3125 2378 3379 2068 
Q 3634 1759 3634 1313 
Q 3634 634 3220 271 
Q 2806 -91 2034 -91 
Q 1263 -91 848 271 
Q 434 634 434 1313 
Q 434 1759 690 2068 
Q 947 2378 1403 2484 
z
M 1172 3481 
Q 1172 3119 1398 2916 
Q 1625 2713 2034 2713 
Q 2441 2713 2670 2916 
Q 2900 3119 2900 3481 
Q 2900 3844 2670 4047 
Q 2441 4250 2034 4250 
Q 1625 4250 1398 4047 
Q 1172 3844 1172 3481 
z
" transform="scale(0.015625)"/>
       </defs>
       <use xlink:href="#DejaVuSans-1b"/>
      </g>
     </g>
    </g>
    <g id="xtick_8">
     <g id="line2d_31">
      <path d="M 749.582287 242.997656 
L 749.582287 75.122812 
" clip-path="url(#pe4e9e902f6)" style="fill: none; stroke: #b0b0b0; stroke-opacity: 0.2; stroke-width: 0.8; stroke-linecap: square"/>
     </g>
     <g id="line2d_32">
      <g>
       <use xlink:href="#m62e5511504" x="749.582287" y="242.997656" style="stroke: #000000; stroke-width: 0.8"/>
      </g>
     </g>
     <g id="text_18">
      <!-- 10 -->
      <g transform="translate(743.219787 257.595312) scale(0.1 -0.1)">
       <use xlink:href="#DejaVuSans-14"/>
       <use xlink:href="#DejaVuSans-13" transform="translate(63.625 0)"/>
      </g>
     </g>
    </g>
    <g id="text_19">
     <!-- Acknowledged write → complete display (seconds) -->
     <g transform="translate(486.806377 271.596094) scale(0.1 -0.1)">
      <defs>
       <path id="DejaVuSans-24" d="M 2188 4044 
L 1331 1722 
L 3047 1722 
L 2188 4044 
z
M 1831 4666 
L 2547 4666 
L 4325 0 
L 3669 0 
L 3244 1197 
L 1141 1197 
L 716 0 
L 50 0 
L 1831 4666 
z
" transform="scale(0.015625)"/>
       <path id="DejaVuSans-4e" d="M 581 4863 
L 1159 4863 
L 1159 1991 
L 2875 3500 
L 3609 3500 
L 1753 1863 
L 3688 0 
L 2938 0 
L 1159 1709 
L 1159 0 
L 581 0 
L 581 4863 
z
" transform="scale(0.015625)"/>
       <path id="DejaVuSans-5a" d="M 269 3500 
L 844 3500 
L 1563 769 
L 2278 3500 
L 2956 3500 
L 3675 769 
L 4391 3500 
L 4966 3500 
L 4050 0 
L 3372 0 
L 2619 2869 
L 1863 0 
L 1184 0 
L 269 3500 
z
" transform="scale(0.015625)"/>
       <path id="DejaVuSans-c1c" d="M 5050 2147 
L 5050 1866 
L 3822 638 
L 3447 1013 
L 4175 1741 
L 366 1741 
L 366 2272 
L 4175 2272 
L 3447 3000 
L 3822 3375 
L 5050 2147 
z
" transform="scale(0.015625)"/>
      </defs>
      <use xlink:href="#DejaVuSans-24"/>
      <use xlink:href="#DejaVuSans-46" transform="translate(66.65625 0)"/>
      <use xlink:href="#DejaVuSans-4e" transform="translate(121.640625 0)"/>
      <use xlink:href="#DejaVuSans-51" transform="translate(179.546875 0)"/>
      <use xlink:href="#DejaVuSans-52" transform="translate(242.921875 0)"/>
      <use xlink:href="#DejaVuSans-5a" transform="translate(304.109375 0)"/>
      <use xlink:href="#DejaVuSans-4f" transform="translate(385.890625 0)"/>
      <use xlink:href="#DejaVuSans-48" transform="translate(413.671875 0)"/>
      <use xlink:href="#DejaVuSans-47" transform="translate(475.203125 0)"/>
      <use xlink:href="#DejaVuSans-4a" transform="translate(538.6875 0)"/>
      <use xlink:href="#DejaVuSans-48" transform="translate(602.171875 0)"/>
      <use xlink:href="#DejaVuSans-47" transform="translate(663.703125 0)"/>
      <use xlink:href="#DejaVuSans-3" transform="translate(727.1875 0)"/>
      <use xlink:href="#DejaVuSans-5a" transform="translate(758.96875 0)"/>
      <use xlink:href="#DejaVuSans-55" transform="translate(840.75 0)"/>
      <use xlink:href="#DejaVuSans-4c" transform="translate(881.859375 0)"/>
      <use xlink:href="#DejaVuSans-57" transform="translate(909.640625 0)"/>
      <use xlink:href="#DejaVuSans-48" transform="translate(948.84375 0)"/>
      <use xlink:href="#DejaVuSans-3" transform="translate(1010.375 0)"/>
      <use xlink:href="#DejaVuSans-c1c" transform="translate(1042.15625 0)"/>
      <use xlink:href="#DejaVuSans-3" transform="translate(1125.953125 0)"/>
      <use xlink:href="#DejaVuSans-46" transform="translate(1157.734375 0)"/>
      <use xlink:href="#DejaVuSans-52" transform="translate(1212.71875 0)"/>
      <use xlink:href="#DejaVuSans-50" transform="translate(1273.90625 0)"/>
      <use xlink:href="#DejaVuSans-53" transform="translate(1371.3125 0)"/>
      <use xlink:href="#DejaVuSans-4f" transform="translate(1434.796875 0)"/>
      <use xlink:href="#DejaVuSans-48" transform="translate(1462.578125 0)"/>
      <use xlink:href="#DejaVuSans-57" transform="translate(1524.109375 0)"/>
      <use xlink:href="#DejaVuSans-48" transform="translate(1563.3125 0)"/>
      <use xlink:href="#DejaVuSans-3" transform="translate(1624.84375 0)"/>
      <use xlink:href="#DejaVuSans-47" transform="translate(1656.625 0)"/>
      <use xlink:href="#DejaVuSans-4c" transform="translate(1720.109375 0)"/>
      <use xlink:href="#DejaVuSans-56" transform="translate(1747.890625 0)"/>
      <use xlink:href="#DejaVuSans-53" transform="translate(1799.984375 0)"/>
      <use xlink:href="#DejaVuSans-4f" transform="translate(1863.46875 0)"/>
      <use xlink:href="#DejaVuSans-44" transform="translate(1891.25 0)"/>
      <use xlink:href="#DejaVuSans-5c" transform="translate(1952.53125 0)"/>
      <use xlink:href="#DejaVuSans-3" transform="translate(2011.71875 0)"/>
      <use xlink:href="#DejaVuSans-b" transform="translate(2043.5 0)"/>
      <use xlink:href="#DejaVuSans-56" transform="translate(2082.515625 0)"/>
      <use xlink:href="#DejaVuSans-48" transform="translate(2134.609375 0)"/>
      <use xlink:href="#DejaVuSans-46" transform="translate(2196.140625 0)"/>
      <use xlink:href="#DejaVuSans-52" transform="translate(2251.125 0)"/>
      <use xlink:href="#DejaVuSans-51" transform="translate(2312.3125 0)"/>
      <use xlink:href="#DejaVuSans-47" transform="translate(2375.6875 0)"/>
      <use xlink:href="#DejaVuSans-56" transform="translate(2439.171875 0)"/>
      <use xlink:href="#DejaVuSans-c" transform="translate(2491.265625 0)"/>
     </g>
    </g>
   </g>
   <g id="matplotlib.axis_4">
    <g id="ytick_9">
     <g id="line2d_33">
      <g>
       <use xlink:href="#md98101e669" x="453.36088" y="89.690464" style="stroke: #000000; stroke-width: 0.8"/>
      </g>
     </g>
     <g id="text_20">
      <!-- Content -->
      <g transform="translate(406.590567 93.489292) scale(0.1 -0.1)">
       <use xlink:href="#DejaVuSans-26"/>
       <use xlink:href="#DejaVuSans-52" transform="translate(69.828125 0)"/>
       <use xlink:href="#DejaVuSans-51" transform="translate(131.015625 0)"/>
       <use xlink:href="#DejaVuSans-57" transform="translate(194.390625 0)"/>
       <use xlink:href="#DejaVuSans-48" transform="translate(233.59375 0)"/>
       <use xlink:href="#DejaVuSans-51" transform="translate(295.125 0)"/>
       <use xlink:href="#DejaVuSans-57" transform="translate(358.5 0)"/>
      </g>
     </g>
    </g>
    <g id="ytick_10">
     <g id="line2d_34">
      <g>
       <use xlink:href="#md98101e669" x="453.36088" y="107.032907" style="stroke: #000000; stroke-width: 0.8"/>
      </g>
     </g>
     <g id="text_21">
      <!-- Transitive -->
      <g transform="translate(398.389005 110.832126) scale(0.1 -0.1)">
       <use xlink:href="#DejaVuSans-37"/>
       <use xlink:href="#DejaVuSans-55" transform="translate(46.375 0)"/>
       <use xlink:href="#DejaVuSans-44" transform="translate(87.484375 0)"/>
       <use xlink:href="#DejaVuSans-51" transform="translate(148.765625 0)"/>
       <use xlink:href="#DejaVuSans-56" transform="translate(212.140625 0)"/>
       <use xlink:href="#DejaVuSans-4c" transform="translate(264.234375 0)"/>
       <use xlink:href="#DejaVuSans-57" transform="translate(292.015625 0)"/>
       <use xlink:href="#DejaVuSans-4c" transform="translate(331.21875 0)"/>
       <use xlink:href="#DejaVuSans-59" transform="translate(359 0)"/>
       <use xlink:href="#DejaVuSans-48" transform="translate(418.1875 0)"/>
      </g>
     </g>
    </g>
    <g id="ytick_11">
     <g id="line2d_35">
      <g>
       <use xlink:href="#md98101e669" x="453.36088" y="124.375349" style="stroke: #000000; stroke-width: 0.8"/>
      </g>
     </g>
     <g id="text_22">
      <!-- Exit -->
      <g transform="translate(427.424942 128.174568) scale(0.1 -0.1)">
       <defs>
        <path id="DejaVuSans-28" d="M 628 4666 
L 3578 4666 
L 3578 4134 
L 1259 4134 
L 1259 2753 
L 3481 2753 
L 3481 2222 
L 1259 2222 
L 1259 531 
L 3634 531 
L 3634 0 
L 628 0 
L 628 4666 
z
" transform="scale(0.015625)"/>
        <path id="DejaVuSans-5b" d="M 3513 3500 
L 2247 1797 
L 3578 0 
L 2900 0 
L 1881 1375 
L 863 0 
L 184 0 
L 1544 1831 
L 300 3500 
L 978 3500 
L 1906 2253 
L 2834 3500 
L 3513 3500 
z
" transform="scale(0.015625)"/>
       </defs>
       <use xlink:href="#DejaVuSans-28"/>
       <use xlink:href="#DejaVuSans-5b" transform="translate(63.1875 0)"/>
       <use xlink:href="#DejaVuSans-4c" transform="translate(122.375 0)"/>
       <use xlink:href="#DejaVuSans-57" transform="translate(150.15625 0)"/>
      </g>
     </g>
    </g>
    <g id="ytick_12">
     <g id="line2d_36">
      <g>
       <use xlink:href="#md98101e669" x="453.36088" y="141.717792" style="stroke: #000000; stroke-width: 0.8"/>
      </g>
     </g>
     <g id="text_23">
      <!-- Entry -->
      <g transform="translate(419.75463 145.51662) scale(0.1 -0.1)">
       <use xlink:href="#DejaVuSans-28"/>
       <use xlink:href="#DejaVuSans-51" transform="translate(63.1875 0)"/>
       <use xlink:href="#DejaVuSans-57" transform="translate(126.5625 0)"/>
       <use xlink:href="#DejaVuSans-55" transform="translate(165.765625 0)"/>
       <use xlink:href="#DejaVuSans-5c" transform="translate(206.875 0)"/>
      </g>
     </g>
    </g>
    <g id="ytick_13">
     <g id="line2d_37">
      <g>
       <use xlink:href="#md98101e669" x="453.36088" y="159.060234" style="stroke: #000000; stroke-width: 0.8"/>
      </g>
     </g>
     <g id="text_24">
      <!-- Async -->
      <g transform="translate(416.556192 162.859062) scale(0.1 -0.1)">
       <use xlink:href="#DejaVuSans-24"/>
       <use xlink:href="#DejaVuSans-56" transform="translate(68.40625 0)"/>
       <use xlink:href="#DejaVuSans-5c" transform="translate(120.5 0)"/>
       <use xlink:href="#DejaVuSans-51" transform="translate(179.6875 0)"/>
       <use xlink:href="#DejaVuSans-46" transform="translate(243.0625 0)"/>
      </g>
     </g>
    </g>
    <g id="ytick_14">
     <g id="line2d_38">
      <g>
       <use xlink:href="#md98101e669" x="453.36088" y="176.402677" style="stroke: #000000; stroke-width: 0.8"/>
      </g>
     </g>
     <g id="text_25">
      <!-- Unrelated -->
      <g transform="translate(397.332755 180.201896) scale(0.1 -0.1)">
       <defs>
        <path id="DejaVuSans-38" d="M 556 4666 
L 1191 4666 
L 1191 1831 
Q 1191 1081 1462 751 
Q 1734 422 2344 422 
Q 2950 422 3222 751 
Q 3494 1081 3494 1831 
L 3494 4666 
L 4128 4666 
L 4128 1753 
Q 4128 841 3676 375 
Q 3225 -91 2344 -91 
Q 1459 -91 1007 375 
Q 556 841 556 1753 
L 556 4666 
z
" transform="scale(0.015625)"/>
       </defs>
       <use xlink:href="#DejaVuSans-38"/>
       <use xlink:href="#DejaVuSans-51" transform="translate(73.1875 0)"/>
       <use xlink:href="#DejaVuSans-55" transform="translate(136.5625 0)"/>
       <use xlink:href="#DejaVuSans-48" transform="translate(175.46875 0)"/>
       <use xlink:href="#DejaVuSans-4f" transform="translate(237 0)"/>
       <use xlink:href="#DejaVuSans-44" transform="translate(264.78125 0)"/>
       <use xlink:href="#DejaVuSans-57" transform="translate(326.0625 0)"/>
       <use xlink:href="#DejaVuSans-48" transform="translate(365.265625 0)"/>
       <use xlink:href="#DejaVuSans-47" transform="translate(426.796875 0)"/>
      </g>
     </g>
    </g>
    <g id="ytick_15">
     <g id="line2d_39">
      <g>
       <use xlink:href="#md98101e669" x="453.36088" y="193.745119" style="stroke: #000000; stroke-width: 0.8"/>
      </g>
     </g>
     <g id="text_26">
      <!-- Insert -->
      <g transform="translate(417.67963 197.543948) scale(0.1 -0.1)">
       <defs>
        <path id="DejaVuSans-2c" d="M 628 4666 
L 1259 4666 
L 1259 0 
L 628 0 
L 628 4666 
z
" transform="scale(0.015625)"/>
       </defs>
       <use xlink:href="#DejaVuSans-2c"/>
       <use xlink:href="#DejaVuSans-51" transform="translate(29.5 0)"/>
       <use xlink:href="#DejaVuSans-56" transform="translate(92.875 0)"/>
       <use xlink:href="#DejaVuSans-48" transform="translate(144.96875 0)"/>
       <use xlink:href="#DejaVuSans-55" transform="translate(206.5 0)"/>
       <use xlink:href="#DejaVuSans-57" transform="translate(247.609375 0)"/>
      </g>
     </g>
    </g>
    <g id="ytick_16">
     <g id="line2d_40">
      <g>
       <use xlink:href="#md98101e669" x="453.36088" y="211.087562" style="stroke: #000000; stroke-width: 0.8"/>
      </g>
     </g>
     <g id="text_27">
      <!-- Delete -->
      <g transform="translate(413.503067 214.886781) scale(0.1 -0.1)">
       <defs>
        <path id="DejaVuSans-27" d="M 1259 4147 
L 1259 519 
L 2022 519 
Q 2988 519 3436 956 
Q 3884 1394 3884 2338 
Q 3884 3275 3436 3711 
Q 2988 4147 2022 4147 
L 1259 4147 
z
M 628 4666 
L 1925 4666 
Q 3281 4666 3915 4102 
Q 4550 3538 4550 2338 
Q 4550 1131 3912 565 
Q 3275 0 1925 0 
L 628 0 
L 628 4666 
z
" transform="scale(0.015625)"/>
       </defs>
       <use xlink:href="#DejaVuSans-27"/>
       <use xlink:href="#DejaVuSans-48" transform="translate(77 0)"/>
       <use xlink:href="#DejaVuSans-4f" transform="translate(138.53125 0)"/>
       <use xlink:href="#DejaVuSans-48" transform="translate(166.3125 0)"/>
       <use xlink:href="#DejaVuSans-57" transform="translate(227.84375 0)"/>
       <use xlink:href="#DejaVuSans-48" transform="translate(267.046875 0)"/>
      </g>
     </g>
    </g>
    <g id="ytick_17">
     <g id="line2d_41">
      <g>
       <use xlink:href="#md98101e669" x="453.36088" y="228.430005" style="stroke: #000000; stroke-width: 0.8"/>
      </g>
     </g>
     <g id="text_28">
      <!-- Reconnect -->
      <g transform="translate(393.843692 232.228833) scale(0.1 -0.1)">
       <defs>
        <path id="DejaVuSans-35" d="M 2841 2188 
Q 3044 2119 3236 1894 
Q 3428 1669 3622 1275 
L 4263 0 
L 3584 0 
L 2988 1197 
Q 2756 1666 2539 1819 
Q 2322 1972 1947 1972 
L 1259 1972 
L 1259 0 
L 628 0 
L 628 4666 
L 2053 4666 
Q 2853 4666 3247 4331 
Q 3641 3997 3641 3322 
Q 3641 2881 3436 2590 
Q 3231 2300 2841 2188 
z
M 1259 4147 
L 1259 2491 
L 2053 2491 
Q 2509 2491 2742 2702 
Q 2975 2913 2975 3322 
Q 2975 3731 2742 3939 
Q 2509 4147 2053 4147 
L 1259 4147 
z
" transform="scale(0.015625)"/>
       </defs>
       <use xlink:href="#DejaVuSans-35"/>
       <use xlink:href="#DejaVuSans-48" transform="translate(65 0)"/>
       <use xlink:href="#DejaVuSans-46" transform="translate(126.53125 0)"/>
       <use xlink:href="#DejaVuSans-52" transform="translate(181.515625 0)"/>
       <use xlink:href="#DejaVuSans-51" transform="translate(242.703125 0)"/>
       <use xlink:href="#DejaVuSans-51" transform="translate(306.078125 0)"/>
       <use xlink:href="#DejaVuSans-48" transform="translate(369.453125 0)"/>
       <use xlink:href="#DejaVuSans-46" transform="translate(430.984375 0)"/>
       <use xlink:href="#DejaVuSans-57" transform="translate(485.96875 0)"/>
      </g>
     </g>
    </g>
   </g>
   <g id="line2d_42">
    <path d="M 749.582287 242.997656 
L 749.582287 75.122812 
" clip-path="url(#pe4e9e902f6)" style="fill: none; stroke-dasharray: 5.55,2.4; stroke-dashoffset: 0; stroke: #b44736; stroke-width: 1.5"/>
   </g>
   <g id="patch_15">
    <path d="M 453.36088 242.997656 
L 453.36088 75.122812 
" style="fill: none; stroke: #000000; stroke-width: 0.8; stroke-linejoin: miter; stroke-linecap: square"/>
   </g>
   <g id="patch_16">
    <path d="M 453.36088 242.997656 
L 773.28 242.997656 
" style="fill: none; stroke: #000000; stroke-width: 0.8; stroke-linejoin: miter; stroke-linecap: square"/>
   </g>
   <g id="text_29">
    <!-- Tessar: all nine tested mutations pass -->
    <g transform="translate(453.36088 69.122812) scale(0.12 -0.12)">
     <defs>
      <path id="DejaVuSans-Bold-37" d="M 31 4666 
L 4331 4666 
L 4331 3756 
L 2784 3756 
L 2784 0 
L 1581 0 
L 1581 3756 
L 31 3756 
L 31 4666 
z
" transform="scale(0.015625)"/>
      <path id="DejaVuSans-Bold-1d" d="M 716 3500 
L 1844 3500 
L 1844 2291 
L 716 2291 
L 716 3500 
z
M 716 1209 
L 1844 1209 
L 1844 0 
L 716 0 
L 716 1209 
z
" transform="scale(0.015625)"/>
      <path id="DejaVuSans-Bold-50" d="M 3781 2919 
Q 3994 3244 4286 3414 
Q 4578 3584 4928 3584 
Q 5531 3584 5847 3212 
Q 6163 2841 6163 2131 
L 6163 0 
L 5038 0 
L 5038 1825 
Q 5041 1866 5042 1909 
Q 5044 1953 5044 2034 
Q 5044 2406 4934 2573 
Q 4825 2741 4581 2741 
Q 4263 2741 4089 2478 
Q 3916 2216 3909 1719 
L 3909 0 
L 2784 0 
L 2784 1825 
Q 2784 2406 2684 2573 
Q 2584 2741 2328 2741 
Q 2006 2741 1831 2477 
Q 1656 2213 1656 1722 
L 1656 0 
L 531 0 
L 531 3500 
L 1656 3500 
L 1656 2988 
Q 1863 3284 2130 3434 
Q 2397 3584 2719 3584 
Q 3081 3584 3359 3409 
Q 3638 3234 3781 2919 
z
" transform="scale(0.015625)"/>
      <path id="DejaVuSans-Bold-58" d="M 500 1363 
L 500 3500 
L 1625 3500 
L 1625 3150 
Q 1625 2866 1622 2436 
Q 1619 2006 1619 1863 
Q 1619 1441 1641 1255 
Q 1663 1069 1716 984 
Q 1784 875 1895 815 
Q 2006 756 2150 756 
Q 2500 756 2700 1025 
Q 2900 1294 2900 1772 
L 2900 3500 
L 4019 3500 
L 4019 0 
L 2900 0 
L 2900 506 
Q 2647 200 2364 54 
Q 2081 -91 1741 -91 
Q 1134 -91 817 281 
Q 500 653 500 1363 
z
" transform="scale(0.015625)"/>
     </defs>
     <use xlink:href="#DejaVuSans-Bold-37"/>
     <use xlink:href="#DejaVuSans-Bold-48" transform="translate(54.9375 0)"/>
     <use xlink:href="#DejaVuSans-Bold-56" transform="translate(122.765625 0)"/>
     <use xlink:href="#DejaVuSans-Bold-56" transform="translate(182.28125 0)"/>
     <use xlink:href="#DejaVuSans-Bold-44" transform="translate(241.796875 0)"/>
     <use xlink:href="#DejaVuSans-Bold-55" transform="translate(309.28125 0)"/>
     <use xlink:href="#DejaVuSans-Bold-1d" transform="translate(358.59375 0)"/>
     <use xlink:href="#DejaVuSans-Bold-3" transform="translate(398.578125 0)"/>
     <use xlink:href="#DejaVuSans-Bold-44" transform="translate(433.390625 0)"/>
     <use xlink:href="#DejaVuSans-Bold-4f" transform="translate(500.875 0)"/>
     <use xlink:href="#DejaVuSans-Bold-4f" transform="translate(535.15625 0)"/>
     <use xlink:href="#DejaVuSans-Bold-3" transform="translate(569.4375 0)"/>
     <use xlink:href="#DejaVuSans-Bold-51" transform="translate(604.25 0)"/>
     <use xlink:href="#DejaVuSans-Bold-4c" transform="translate(675.4375 0)"/>
     <use xlink:href="#DejaVuSans-Bold-51" transform="translate(709.71875 0)"/>
     <use xlink:href="#DejaVuSans-Bold-48" transform="translate(780.90625 0)"/>
     <use xlink:href="#DejaVuSans-Bold-3" transform="translate(848.734375 0)"/>
     <use xlink:href="#DejaVuSans-Bold-57" transform="translate(883.546875 0)"/>
     <use xlink:href="#DejaVuSans-Bold-48" transform="translate(931.34375 0)"/>
     <use xlink:href="#DejaVuSans-Bold-56" transform="translate(999.171875 0)"/>
     <use xlink:href="#DejaVuSans-Bold-57" transform="translate(1058.6875 0)"/>
     <use xlink:href="#DejaVuSans-Bold-48" transform="translate(1106.484375 0)"/>
     <use xlink:href="#DejaVuSans-Bold-47" transform="translate(1174.3125 0)"/>
     <use xlink:href="#DejaVuSans-Bold-3" transform="translate(1245.890625 0)"/>
     <use xlink:href="#DejaVuSans-Bold-50" transform="translate(1280.703125 0)"/>
     <use xlink:href="#DejaVuSans-Bold-58" transform="translate(1384.90625 0)"/>
     <use xlink:href="#DejaVuSans-Bold-57" transform="translate(1456.09375 0)"/>
     <use xlink:href="#DejaVuSans-Bold-44" transform="translate(1503.890625 0)"/>
     <use xlink:href="#DejaVuSans-Bold-57" transform="translate(1571.375 0)"/>
     <use xlink:href="#DejaVuSans-Bold-4c" transform="translate(1619.171875 0)"/>
     <use xlink:href="#DejaVuSans-Bold-52" transform="translate(1653.453125 0)"/>
     <use xlink:href="#DejaVuSans-Bold-51" transform="translate(1722.15625 0)"/>
     <use xlink:href="#DejaVuSans-Bold-56" transform="translate(1793.34375 0)"/>
     <use xlink:href="#DejaVuSans-Bold-3" transform="translate(1852.859375 0)"/>
     <use xlink:href="#DejaVuSans-Bold-53" transform="translate(1887.671875 0)"/>
     <use xlink:href="#DejaVuSans-Bold-44" transform="translate(1959.25 0)"/>
     <use xlink:href="#DejaVuSans-Bold-56" transform="translate(2026.734375 0)"/>
     <use xlink:href="#DejaVuSans-Bold-56" transform="translate(2086.25 0)"/>
    </g>
   </g>
  </g>
  <g id="text_30">
   <!-- Tessar · 12,550 fabricated records · DO NOT MERGE -->
   <g transform="translate(31.68 15.598125) scale(0.12 -0.12)">
    <defs>
     <path id="DejaVuSans-Bold-79" d="M 653 2828 
L 1778 2828 
L 1778 1619 
L 653 1619 
L 653 2828 
z
" transform="scale(0.015625)"/>
     <path id="DejaVuSans-Bold-14" d="M 750 831 
L 1813 831 
L 1813 3847 
L 722 3622 
L 722 4441 
L 1806 4666 
L 2950 4666 
L 2950 831 
L 4013 831 
L 4013 0 
L 750 0 
L 750 831 
z
" transform="scale(0.015625)"/>
     <path id="DejaVuSans-Bold-f" d="M 653 1209 
L 1778 1209 
L 1778 256 
L 1006 -909 
L 341 -909 
L 653 256 
L 653 1209 
z
" transform="scale(0.015625)"/>
     <path id="DejaVuSans-Bold-18" d="M 678 4666 
L 3669 4666 
L 3669 3781 
L 1638 3781 
L 1638 3059 
Q 1775 3097 1914 3117 
Q 2053 3138 2203 3138 
Q 3056 3138 3531 2711 
Q 4006 2284 4006 1522 
Q 4006 766 3489 337 
Q 2972 -91 2053 -91 
Q 1656 -91 1267 -14 
Q 878 63 494 219 
L 494 1166 
Q 875 947 1217 837 
Q 1559 728 1863 728 
Q 2300 728 2551 942 
Q 2803 1156 2803 1522 
Q 2803 1891 2551 2103 
Q 2300 2316 1863 2316 
Q 1603 2316 1309 2248 
Q 1016 2181 678 2041 
L 678 4666 
z
" transform="scale(0.015625)"/>
     <path id="DejaVuSans-Bold-49" d="M 2841 4863 
L 2841 4128 
L 2222 4128 
Q 1984 4128 1890 4042 
Q 1797 3956 1797 3744 
L 1797 3500 
L 2753 3500 
L 2753 2700 
L 1797 2700 
L 1797 0 
L 678 0 
L 678 2700 
L 122 2700 
L 122 3500 
L 678 3500 
L 678 3744 
Q 678 4316 997 4589 
Q 1316 4863 1984 4863 
L 2841 4863 
z
" transform="scale(0.015625)"/>
     <path id="DejaVuSans-Bold-27" d="M 1791 3756 
L 1791 909 
L 2222 909 
Q 2959 909 3348 1275 
Q 3738 1641 3738 2338 
Q 3738 3031 3350 3393 
Q 2963 3756 2222 3756 
L 1791 3756 
z
M 588 4666 
L 1856 4666 
Q 2919 4666 3439 4514 
Q 3959 4363 4331 4000 
Q 4659 3684 4818 3271 
Q 4978 2859 4978 2338 
Q 4978 1809 4818 1395 
Q 4659 981 4331 666 
Q 3956 303 3431 151 
Q 2906 0 1856 0 
L 588 0 
L 588 4666 
z
" transform="scale(0.015625)"/>
     <path id="DejaVuSans-Bold-32" d="M 2719 3878 
Q 2169 3878 1866 3472 
Q 1563 3066 1563 2328 
Q 1563 1594 1866 1187 
Q 2169 781 2719 781 
Q 3272 781 3575 1187 
Q 3878 1594 3878 2328 
Q 3878 3066 3575 3472 
Q 3272 3878 2719 3878 
z
M 2719 4750 
Q 3844 4750 4481 4106 
Q 5119 3463 5119 2328 
Q 5119 1197 4481 553 
Q 3844 -91 2719 -91 
Q 1597 -91 958 553 
Q 319 1197 319 2328 
Q 319 3463 958 4106 
Q 1597 4750 2719 4750 
z
" transform="scale(0.015625)"/>
     <path id="DejaVuSans-Bold-31" d="M 588 4666 
L 1931 4666 
L 3628 1466 
L 3628 4666 
L 4769 4666 
L 4769 0 
L 3425 0 
L 1728 3200 
L 1728 0 
L 588 0 
L 588 4666 
z
" transform="scale(0.015625)"/>
     <path id="DejaVuSans-Bold-30" d="M 588 4666 
L 2119 4666 
L 3181 2169 
L 4250 4666 
L 5778 4666 
L 5778 0 
L 4641 0 
L 4641 3413 
L 3566 897 
L 2803 897 
L 1728 3413 
L 1728 0 
L 588 0 
L 588 4666 
z
" transform="scale(0.015625)"/>
     <path id="DejaVuSans-Bold-28" d="M 588 4666 
L 3834 4666 
L 3834 3756 
L 1791 3756 
L 1791 2888 
L 3713 2888 
L 3713 1978 
L 1791 1978 
L 1791 909 
L 3903 909 
L 3903 0 
L 588 0 
L 588 4666 
z
" transform="scale(0.015625)"/>
     <path id="DejaVuSans-Bold-35" d="M 2297 2597 
Q 2675 2597 2839 2737 
Q 3003 2878 3003 3200 
Q 3003 3519 2839 3656 
Q 2675 3794 2297 3794 
L 1791 3794 
L 1791 2597 
L 2297 2597 
z
M 1791 1766 
L 1791 0 
L 588 0 
L 588 4666 
L 2425 4666 
Q 3347 4666 3776 4356 
Q 4206 4047 4206 3378 
Q 4206 2916 3982 2619 
Q 3759 2322 3309 2181 
Q 3556 2125 3751 1926 
Q 3947 1728 4147 1325 
L 4800 0 
L 3519 0 
L 2950 1159 
Q 2778 1509 2601 1637 
Q 2425 1766 2131 1766 
L 1791 1766 
z
" transform="scale(0.015625)"/>
     <path id="DejaVuSans-Bold-2a" d="M 4781 347 
Q 4331 128 3847 18 
Q 3363 -91 2847 -91 
Q 1681 -91 1000 561 
Q 319 1213 319 2328 
Q 319 3456 1012 4103 
Q 1706 4750 2913 4750 
Q 3378 4750 3804 4662 
Q 4231 4575 4609 4403 
L 4609 3438 
Q 4219 3659 3833 3768 
Q 3447 3878 3059 3878 
Q 2341 3878 1952 3476 
Q 1563 3075 1563 2328 
Q 1563 1588 1938 1184 
Q 2313 781 3003 781 
Q 3191 781 3352 804 
Q 3513 828 3641 878 
L 3641 1784 
L 2906 1784 
L 2906 2591 
L 4781 2591 
L 4781 347 
z
" transform="scale(0.015625)"/>
    </defs>
    <use xlink:href="#DejaVuSans-Bold-37"/>
    <use xlink:href="#DejaVuSans-Bold-48" transform="translate(54.9375 0)"/>
    <use xlink:href="#DejaVuSans-Bold-56" transform="translate(122.765625 0)"/>
    <use xlink:href="#DejaVuSans-Bold-56" transform="translate(182.28125 0)"/>
    <use xlink:href="#DejaVuSans-Bold-44" transform="translate(241.796875 0)"/>
    <use xlink:href="#DejaVuSans-Bold-55" transform="translate(309.28125 0)"/>
    <use xlink:href="#DejaVuSans-Bold-3" transform="translate(358.59375 0)"/>
    <use xlink:href="#DejaVuSans-Bold-79" transform="translate(393.40625 0)"/>
    <use xlink:href="#DejaVuSans-Bold-3" transform="translate(431.390625 0)"/>
    <use xlink:href="#DejaVuSans-Bold-14" transform="translate(466.203125 0)"/>
    <use xlink:href="#DejaVuSans-Bold-15" transform="translate(535.78125 0)"/>
    <use xlink:href="#DejaVuSans-Bold-f" transform="translate(605.359375 0)"/>
    <use xlink:href="#DejaVuSans-Bold-18" transform="translate(643.34375 0)"/>
    <use xlink:href="#DejaVuSans-Bold-18" transform="translate(712.921875 0)"/>
    <use xlink:href="#DejaVuSans-Bold-13" transform="translate(782.5 0)"/>
    <use xlink:href="#DejaVuSans-Bold-3" transform="translate(852.078125 0)"/>
    <use xlink:href="#DejaVuSans-Bold-49" transform="translate(886.890625 0)"/>
    <use xlink:href="#DejaVuSans-Bold-44" transform="translate(930.390625 0)"/>
    <use xlink:href="#DejaVuSans-Bold-45" transform="translate(997.875 0)"/>
    <use xlink:href="#DejaVuSans-Bold-55" transform="translate(1069.453125 0)"/>
    <use xlink:href="#DejaVuSans-Bold-4c" transform="translate(1118.765625 0)"/>
    <use xlink:href="#DejaVuSans-Bold-46" transform="translate(1153.046875 0)"/>
    <use xlink:href="#DejaVuSans-Bold-44" transform="translate(1212.328125 0)"/>
    <use xlink:href="#DejaVuSans-Bold-57" transform="translate(1279.8125 0)"/>
    <use xlink:href="#DejaVuSans-Bold-48" transform="translate(1327.609375 0)"/>
    <use xlink:href="#DejaVuSans-Bold-47" transform="translate(1395.4375 0)"/>
    <use xlink:href="#DejaVuSans-Bold-3" transform="translate(1467.015625 0)"/>
    <use xlink:href="#DejaVuSans-Bold-55" transform="translate(1501.828125 0)"/>
    <use xlink:href="#DejaVuSans-Bold-48" transform="translate(1551.140625 0)"/>
    <use xlink:href="#DejaVuSans-Bold-46" transform="translate(1618.96875 0)"/>
    <use xlink:href="#DejaVuSans-Bold-52" transform="translate(1678.25 0)"/>
    <use xlink:href="#DejaVuSans-Bold-55" transform="translate(1746.953125 0)"/>
    <use xlink:href="#DejaVuSans-Bold-47" transform="translate(1796.265625 0)"/>
    <use xlink:href="#DejaVuSans-Bold-56" transform="translate(1867.84375 0)"/>
    <use xlink:href="#DejaVuSans-Bold-3" transform="translate(1927.359375 0)"/>
    <use xlink:href="#DejaVuSans-Bold-79" transform="translate(1962.171875 0)"/>
    <use xlink:href="#DejaVuSans-Bold-3" transform="translate(2000.15625 0)"/>
    <use xlink:href="#DejaVuSans-Bold-27" transform="translate(2034.96875 0)"/>
    <use xlink:href="#DejaVuSans-Bold-32" transform="translate(2117.984375 0)"/>
    <use xlink:href="#DejaVuSans-Bold-3" transform="translate(2203 0)"/>
    <use xlink:href="#DejaVuSans-Bold-31" transform="translate(2237.8125 0)"/>
    <use xlink:href="#DejaVuSans-Bold-32" transform="translate(2321.5 0)"/>
    <use xlink:href="#DejaVuSans-Bold-37" transform="translate(2406.515625 0)"/>
    <use xlink:href="#DejaVuSans-Bold-3" transform="translate(2474.734375 0)"/>
    <use xlink:href="#DejaVuSans-Bold-30" transform="translate(2509.546875 0)"/>
    <use xlink:href="#DejaVuSans-Bold-28" transform="translate(2609.0625 0)"/>
    <use xlink:href="#DejaVuSans-Bold-35" transform="translate(2677.375 0)"/>
    <use xlink:href="#DejaVuSans-Bold-2a" transform="translate(2754.375 0)"/>
    <use xlink:href="#DejaVuSans-Bold-28" transform="translate(2836.453125 0)"/>
   </g>
  </g>
  <g id="text_31">
   <!-- Reference refresh exceeded 10 s and is disqualified for a freshness-preserving speedup claim. -->
   <g style="fill: #604936" transform="translate(31.68 306.717539) scale(0.09 -0.09)">
    <defs>
     <path id="DejaVuSans-4b" d="M 3513 2113 
L 3513 0 
L 2938 0 
L 2938 2094 
Q 2938 2591 2744 2837 
Q 2550 3084 2163 3084 
Q 1697 3084 1428 2787 
Q 1159 2491 1159 1978 
L 1159 0 
L 581 0 
L 581 4863 
L 1159 4863 
L 1159 2956 
Q 1366 3272 1645 3428 
Q 1925 3584 2291 3584 
Q 2894 3584 3203 3211 
Q 3513 2838 3513 2113 
z
" transform="scale(0.015625)"/>
     <path id="DejaVuSans-54" d="M 947 1747 
Q 947 1113 1208 752 
Q 1469 391 1925 391 
Q 2381 391 2643 752 
Q 2906 1113 2906 1747 
Q 2906 2381 2643 2742 
Q 2381 3103 1925 3103 
Q 1469 3103 1208 2742 
Q 947 2381 947 1747 
z
M 2906 525 
Q 2725 213 2448 61 
Q 2172 -91 1784 -91 
Q 1150 -91 751 415 
Q 353 922 353 1747 
Q 353 2572 751 3078 
Q 1150 3584 1784 3584 
Q 2172 3584 2448 3432 
Q 2725 3281 2906 2969 
L 2906 3500 
L 3481 3500 
L 3481 -1331 
L 2906 -1331 
L 2906 525 
z
" transform="scale(0.015625)"/>
     <path id="DejaVuSans-58" d="M 544 1381 
L 544 3500 
L 1119 3500 
L 1119 1403 
Q 1119 906 1312 657 
Q 1506 409 1894 409 
Q 2359 409 2629 706 
Q 2900 1003 2900 1516 
L 2900 3500 
L 3475 3500 
L 3475 0 
L 2900 0 
L 2900 538 
Q 2691 219 2414 64 
Q 2138 -91 1772 -91 
Q 1169 -91 856 284 
Q 544 659 544 1381 
z
M 1991 3584 
L 1991 3584 
z
" transform="scale(0.015625)"/>
     <path id="DejaVuSans-13af" d="M 3431 3500 
L 3431 0 
L 2853 0 
L 2853 3053 
L 1275 3053 
L 1275 0 
L 697 0 
L 697 3053 
L 147 3053 
L 147 3500 
L 697 3500 
L 697 3744 
Q 697 4316 967 4589 
Q 1238 4863 1797 4863 
L 2375 4863 
L 2375 4384 
L 1825 4384 
Q 1516 4384 1395 4259 
Q 1275 4134 1275 3809 
L 1275 3500 
L 3431 3500 
z
M 2853 4856 
L 3431 4856 
L 3431 4128 
L 2853 4128 
L 2853 4856 
z
" transform="scale(0.015625)"/>
     <path id="DejaVuSans-10" d="M 313 2009 
L 1997 2009 
L 1997 1497 
L 313 1497 
L 313 2009 
z
" transform="scale(0.015625)"/>
    </defs>
    <use xlink:href="#DejaVuSans-35"/>
    <use xlink:href="#DejaVuSans-48" transform="translate(65 0)"/>
    <use xlink:href="#DejaVuSans-49" transform="translate(126.53125 0)"/>
    <use xlink:href="#DejaVuSans-48" transform="translate(161.734375 0)"/>
    <use xlink:href="#DejaVuSans-55" transform="translate(223.265625 0)"/>
    <use xlink:href="#DejaVuSans-48" transform="translate(262.171875 0)"/>
    <use xlink:href="#DejaVuSans-51" transform="translate(323.703125 0)"/>
    <use xlink:href="#DejaVuSans-46" transform="translate(387.078125 0)"/>
    <use xlink:href="#DejaVuSans-48" transform="translate(442.0625 0)"/>
    <use xlink:href="#DejaVuSans-3" transform="translate(503.59375 0)"/>
    <use xlink:href="#DejaVuSans-55" transform="translate(535.375 0)"/>
    <use xlink:href="#DejaVuSans-48" transform="translate(574.28125 0)"/>
    <use xlink:href="#DejaVuSans-49" transform="translate(635.8125 0)"/>
    <use xlink:href="#DejaVuSans-55" transform="translate(671.015625 0)"/>
    <use xlink:href="#DejaVuSans-48" transform="translate(709.921875 0)"/>
    <use xlink:href="#DejaVuSans-56" transform="translate(771.453125 0)"/>
    <use xlink:href="#DejaVuSans-4b" transform="translate(823.546875 0)"/>
    <use xlink:href="#DejaVuSans-3" transform="translate(886.921875 0)"/>
    <use xlink:href="#DejaVuSans-48" transform="translate(918.703125 0)"/>
    <use xlink:href="#DejaVuSans-5b" transform="translate(978.484375 0)"/>
    <use xlink:href="#DejaVuSans-46" transform="translate(1035.921875 0)"/>
    <use xlink:href="#DejaVuSans-48" transform="translate(1090.90625 0)"/>
    <use xlink:href="#DejaVuSans-48" transform="translate(1152.4375 0)"/>
    <use xlink:href="#DejaVuSans-47" transform="translate(1213.96875 0)"/>
    <use xlink:href="#DejaVuSans-48" transform="translate(1277.453125 0)"/>
    <use xlink:href="#DejaVuSans-47" transform="translate(1338.984375 0)"/>
    <use xlink:href="#DejaVuSans-3" transform="translate(1402.46875 0)"/>
    <use xlink:href="#DejaVuSans-14" transform="translate(1434.25 0)"/>
    <use xlink:href="#DejaVuSans-13" transform="translate(1497.875 0)"/>
    <use xlink:href="#DejaVuSans-3" transform="translate(1561.5 0)"/>
    <use xlink:href="#DejaVuSans-56" transform="translate(1593.28125 0)"/>
    <use xlink:href="#DejaVuSans-3" transform="translate(1645.375 0)"/>
    <use xlink:href="#DejaVuSans-44" transform="translate(1677.15625 0)"/>
    <use xlink:href="#DejaVuSans-51" transform="translate(1738.4375 0)"/>
    <use xlink:href="#DejaVuSans-47" transform="translate(1801.8125 0)"/>
    <use xlink:href="#DejaVuSans-3" transform="translate(1865.296875 0)"/>
    <use xlink:href="#DejaVuSans-4c" transform="translate(1897.078125 0)"/>
    <use xlink:href="#DejaVuSans-56" transform="translate(1924.859375 0)"/>
    <use xlink:href="#DejaVuSans-3" transform="translate(1976.953125 0)"/>
    <use xlink:href="#DejaVuSans-47" transform="translate(2008.734375 0)"/>
    <use xlink:href="#DejaVuSans-4c" transform="translate(2072.21875 0)"/>
    <use xlink:href="#DejaVuSans-56" transform="translate(2100 0)"/>
    <use xlink:href="#DejaVuSans-54" transform="translate(2152.09375 0)"/>
    <use xlink:href="#DejaVuSans-58" transform="translate(2215.578125 0)"/>
    <use xlink:href="#DejaVuSans-44" transform="translate(2278.953125 0)"/>
    <use xlink:href="#DejaVuSans-4f" transform="translate(2340.234375 0)"/>
    <use xlink:href="#DejaVuSans-4c" transform="translate(2368.015625 0)"/>
    <use xlink:href="#DejaVuSans-13af" transform="translate(2395.796875 0)"/>
    <use xlink:href="#DejaVuSans-48" transform="translate(2458.78125 0)"/>
    <use xlink:href="#DejaVuSans-47" transform="translate(2520.3125 0)"/>
    <use xlink:href="#DejaVuSans-3" transform="translate(2583.796875 0)"/>
    <use xlink:href="#DejaVuSans-49" transform="translate(2615.578125 0)"/>
    <use xlink:href="#DejaVuSans-52" transform="translate(2650.78125 0)"/>
    <use xlink:href="#DejaVuSans-55" transform="translate(2711.96875 0)"/>
    <use xlink:href="#DejaVuSans-3" transform="translate(2753.078125 0)"/>
    <use xlink:href="#DejaVuSans-44" transform="translate(2784.859375 0)"/>
    <use xlink:href="#DejaVuSans-3" transform="translate(2846.140625 0)"/>
    <use xlink:href="#DejaVuSans-49" transform="translate(2877.921875 0)"/>
    <use xlink:href="#DejaVuSans-55" transform="translate(2913.125 0)"/>
    <use xlink:href="#DejaVuSans-48" transform="translate(2952.03125 0)"/>
    <use xlink:href="#DejaVuSans-56" transform="translate(3013.5625 0)"/>
    <use xlink:href="#DejaVuSans-4b" transform="translate(3065.65625 0)"/>
    <use xlink:href="#DejaVuSans-51" transform="translate(3129.03125 0)"/>
    <use xlink:href="#DejaVuSans-48" transform="translate(3192.40625 0)"/>
    <use xlink:href="#DejaVuSans-56" transform="translate(3253.9375 0)"/>
    <use xlink:href="#DejaVuSans-56" transform="translate(3306.03125 0)"/>
    <use xlink:href="#DejaVuSans-10" transform="translate(3358.125 0)"/>
    <use xlink:href="#DejaVuSans-53" transform="translate(3394.203125 0)"/>
    <use xlink:href="#DejaVuSans-55" transform="translate(3457.6875 0)"/>
    <use xlink:href="#DejaVuSans-48" transform="translate(3496.59375 0)"/>
    <use xlink:href="#DejaVuSans-56" transform="translate(3558.125 0)"/>
    <use xlink:href="#DejaVuSans-48" transform="translate(3610.21875 0)"/>
    <use xlink:href="#DejaVuSans-55" transform="translate(3671.75 0)"/>
    <use xlink:href="#DejaVuSans-59" transform="translate(3712.859375 0)"/>
    <use xlink:href="#DejaVuSans-4c" transform="translate(3772.046875 0)"/>
    <use xlink:href="#DejaVuSans-51" transform="translate(3799.828125 0)"/>
    <use xlink:href="#DejaVuSans-4a" transform="translate(3863.203125 0)"/>
    <use xlink:href="#DejaVuSans-3" transform="translate(3926.6875 0)"/>
    <use xlink:href="#DejaVuSans-56" transform="translate(3958.46875 0)"/>
    <use xlink:href="#DejaVuSans-53" transform="translate(4010.5625 0)"/>
    <use xlink:href="#DejaVuSans-48" transform="translate(4074.046875 0)"/>
    <use xlink:href="#DejaVuSans-48" transform="translate(4135.578125 0)"/>
    <use xlink:href="#DejaVuSans-47" transform="translate(4197.109375 0)"/>
    <use xlink:href="#DejaVuSans-58" transform="translate(4260.59375 0)"/>
    <use xlink:href="#DejaVuSans-53" transform="translate(4323.96875 0)"/>
    <use xlink:href="#DejaVuSans-3" transform="translate(4387.453125 0)"/>
    <use xlink:href="#DejaVuSans-46" transform="translate(4419.234375 0)"/>
    <use xlink:href="#DejaVuSans-4f" transform="translate(4474.21875 0)"/>
    <use xlink:href="#DejaVuSans-44" transform="translate(4502 0)"/>
    <use xlink:href="#DejaVuSans-4c" transform="translate(4563.28125 0)"/>
    <use xlink:href="#DejaVuSans-50" transform="translate(4591.0625 0)"/>
    <use xlink:href="#DejaVuSans-11" transform="translate(4688.46875 0)"/>
   </g>
   <!-- JSON-path diagnostic; full 10× HTML replay failed. Samples are local observations, not a capacity guarantee. -->
   <g style="fill: #604936" transform="translate(31.68 317.52) scale(0.09 -0.09)">
    <defs>
     <path id="DejaVuSans-2d" d="M 628 4666 
L 1259 4666 
L 1259 325 
Q 1259 -519 939 -900 
Q 619 -1281 -91 -1281 
L -331 -1281 
L -331 -750 
L -134 -750 
Q 284 -750 456 -515 
Q 628 -281 628 325 
L 628 4666 
z
" transform="scale(0.015625)"/>
     <path id="DejaVuSans-36" d="M 3425 4513 
L 3425 3897 
Q 3066 4069 2747 4153 
Q 2428 4238 2131 4238 
Q 1616 4238 1336 4038 
Q 1056 3838 1056 3469 
Q 1056 3159 1242 3001 
Q 1428 2844 1947 2747 
L 2328 2669 
Q 3034 2534 3370 2195 
Q 3706 1856 3706 1288 
Q 3706 609 3251 259 
Q 2797 -91 1919 -91 
Q 1588 -91 1214 -16 
Q 841 59 441 206 
L 441 856 
Q 825 641 1194 531 
Q 1563 422 1919 422 
Q 2459 422 2753 634 
Q 3047 847 3047 1241 
Q 3047 1584 2836 1778 
Q 2625 1972 2144 2069 
L 1759 2144 
Q 1053 2284 737 2584 
Q 422 2884 422 3419 
Q 422 4038 858 4394 
Q 1294 4750 2059 4750 
Q 2388 4750 2728 4690 
Q 3069 4631 3425 4513 
z
" transform="scale(0.015625)"/>
     <path id="DejaVuSans-32" d="M 2522 4238 
Q 1834 4238 1429 3725 
Q 1025 3213 1025 2328 
Q 1025 1447 1429 934 
Q 1834 422 2522 422 
Q 3209 422 3611 934 
Q 4013 1447 4013 2328 
Q 4013 3213 3611 3725 
Q 3209 4238 2522 4238 
z
M 2522 4750 
Q 3503 4750 4090 4092 
Q 4678 3434 4678 2328 
Q 4678 1225 4090 567 
Q 3503 -91 2522 -91 
Q 1538 -91 948 565 
Q 359 1222 359 2328 
Q 359 3434 948 4092 
Q 1538 4750 2522 4750 
z
" transform="scale(0.015625)"/>
     <path id="DejaVuSans-31" d="M 628 4666 
L 1478 4666 
L 3547 763 
L 3547 4666 
L 4159 4666 
L 4159 0 
L 3309 0 
L 1241 3903 
L 1241 0 
L 628 0 
L 628 4666 
z
" transform="scale(0.015625)"/>
     <path id="DejaVuSans-1e" d="M 750 3309 
L 1409 3309 
L 1409 2516 
L 750 2516 
L 750 3309 
z
M 750 794 
L 1409 794 
L 1409 256 
L 897 -744 
L 494 -744 
L 750 256 
L 750 794 
z
" transform="scale(0.015625)"/>
     <path id="DejaVuSans-99" d="M 4488 3438 
L 3059 2003 
L 4488 575 
L 4116 197 
L 2681 1631 
L 1247 197 
L 878 575 
L 2303 2003 
L 878 3438 
L 1247 3816 
L 2681 2381 
L 4116 3816 
L 4488 3438 
z
" transform="scale(0.015625)"/>
     <path id="DejaVuSans-2b" d="M 628 4666 
L 1259 4666 
L 1259 2753 
L 3553 2753 
L 3553 4666 
L 4184 4666 
L 4184 0 
L 3553 0 
L 3553 2222 
L 1259 2222 
L 1259 0 
L 628 0 
L 628 4666 
z
" transform="scale(0.015625)"/>
     <path id="DejaVuSans-30" d="M 628 4666 
L 1569 4666 
L 2759 1491 
L 3956 4666 
L 4897 4666 
L 4897 0 
L 4281 0 
L 4281 4097 
L 3078 897 
L 2444 897 
L 1241 4097 
L 1241 0 
L 628 0 
L 628 4666 
z
" transform="scale(0.015625)"/>
     <path id="DejaVuSans-2f" d="M 628 4666 
L 1259 4666 
L 1259 531 
L 3531 531 
L 3531 0 
L 628 0 
L 628 4666 
z
" transform="scale(0.015625)"/>
     <path id="DejaVuSans-45" d="M 3116 1747 
Q 3116 2381 2855 2742 
Q 2594 3103 2138 3103 
Q 1681 3103 1420 2742 
Q 1159 2381 1159 1747 
Q 1159 1113 1420 752 
Q 1681 391 2138 391 
Q 2594 391 2855 752 
Q 3116 1113 3116 1747 
z
M 1159 2969 
Q 1341 3281 1617 3432 
Q 1894 3584 2278 3584 
Q 2916 3584 3314 3078 
Q 3713 2572 3713 1747 
Q 3713 922 3314 415 
Q 2916 -91 2278 -91 
Q 1894 -91 1617 61 
Q 1341 213 1159 525 
L 1159 0 
L 581 0 
L 581 4863 
L 1159 4863 
L 1159 2969 
z
" transform="scale(0.015625)"/>
     <path id="DejaVuSans-f" d="M 750 794 
L 1409 794 
L 1409 256 
L 897 -744 
L 494 -744 
L 750 256 
L 750 794 
z
" transform="scale(0.015625)"/>
    </defs>
    <use xlink:href="#DejaVuSans-2d"/>
    <use xlink:href="#DejaVuSans-36" transform="translate(29.5 0)"/>
    <use xlink:href="#DejaVuSans-32" transform="translate(92.984375 0)"/>
    <use xlink:href="#DejaVuSans-31" transform="translate(171.703125 0)"/>
    <use xlink:href="#DejaVuSans-10" transform="translate(246.515625 0)"/>
    <use xlink:href="#DejaVuSans-53" transform="translate(282.59375 0)"/>
    <use xlink:href="#DejaVuSans-44" transform="translate(346.078125 0)"/>
    <use xlink:href="#DejaVuSans-57" transform="translate(407.359375 0)"/>
    <use xlink:href="#DejaVuSans-4b" transform="translate(446.5625 0)"/>
    <use xlink:href="#DejaVuSans-3" transform="translate(509.9375 0)"/>
    <use xlink:href="#DejaVuSans-47" transform="translate(541.71875 0)"/>
    <use xlink:href="#DejaVuSans-4c" transform="translate(605.203125 0)"/>
    <use xlink:href="#DejaVuSans-44" transform="translate(632.984375 0)"/>
    <use xlink:href="#DejaVuSans-4a" transform="translate(694.265625 0)"/>
    <use xlink:href="#DejaVuSans-51" transform="translate(757.75 0)"/>
    <use xlink:href="#DejaVuSans-52" transform="translate(821.125 0)"/>
    <use xlink:href="#DejaVuSans-56" transform="translate(882.3125 0)"/>
    <use xlink:href="#DejaVuSans-57" transform="translate(934.40625 0)"/>
    <use xlink:href="#DejaVuSans-4c" transform="translate(973.609375 0)"/>
    <use xlink:href="#DejaVuSans-46" transform="translate(1001.390625 0)"/>
    <use xlink:href="#DejaVuSans-1e" transform="translate(1056.375 0)"/>
    <use xlink:href="#DejaVuSans-3" transform="translate(1090.0625 0)"/>
    <use xlink:href="#DejaVuSans-49" transform="translate(1121.84375 0)"/>
    <use xlink:href="#DejaVuSans-58" transform="translate(1157.046875 0)"/>
    <use xlink:href="#DejaVuSans-4f" transform="translate(1220.421875 0)"/>
    <use xlink:href="#DejaVuSans-4f" transform="translate(1248.203125 0)"/>
    <use xlink:href="#DejaVuSans-3" transform="translate(1275.984375 0)"/>
    <use xlink:href="#DejaVuSans-14" transform="translate(1307.765625 0)"/>
    <use xlink:href="#DejaVuSans-13" transform="translate(1371.390625 0)"/>
    <use xlink:href="#DejaVuSans-99" transform="translate(1435.015625 0)"/>
    <use xlink:href="#DejaVuSans-3" transform="translate(1518.8125 0)"/>
    <use xlink:href="#DejaVuSans-2b" transform="translate(1550.59375 0)"/>
    <use xlink:href="#DejaVuSans-37" transform="translate(1625.796875 0)"/>
    <use xlink:href="#DejaVuSans-30" transform="translate(1686.875 0)"/>
    <use xlink:href="#DejaVuSans-2f" transform="translate(1773.15625 0)"/>
    <use xlink:href="#DejaVuSans-3" transform="translate(1828.875 0)"/>
    <use xlink:href="#DejaVuSans-55" transform="translate(1860.65625 0)"/>
    <use xlink:href="#DejaVuSans-48" transform="translate(1899.5625 0)"/>
    <use xlink:href="#DejaVuSans-53" transform="translate(1961.09375 0)"/>
    <use xlink:href="#DejaVuSans-4f" transform="translate(2024.578125 0)"/>
    <use xlink:href="#DejaVuSans-44" transform="translate(2052.359375 0)"/>
    <use xlink:href="#DejaVuSans-5c" transform="translate(2113.640625 0)"/>
    <use xlink:href="#DejaVuSans-3" transform="translate(2172.828125 0)"/>
    <use xlink:href="#DejaVuSans-49" transform="translate(2204.609375 0)"/>
    <use xlink:href="#DejaVuSans-44" transform="translate(2239.8125 0)"/>
    <use xlink:href="#DejaVuSans-4c" transform="translate(2301.09375 0)"/>
    <use xlink:href="#DejaVuSans-4f" transform="translate(2328.875 0)"/>
    <use xlink:href="#DejaVuSans-48" transform="translate(2356.65625 0)"/>
    <use xlink:href="#DejaVuSans-47" transform="translate(2418.1875 0)"/>
    <use xlink:href="#DejaVuSans-11" transform="translate(2481.671875 0)"/>
    <use xlink:href="#DejaVuSans-3" transform="translate(2513.453125 0)"/>
    <use xlink:href="#DejaVuSans-36" transform="translate(2545.234375 0)"/>
    <use xlink:href="#DejaVuSans-44" transform="translate(2608.71875 0)"/>
    <use xlink:href="#DejaVuSans-50" transform="translate(2670 0)"/>
    <use xlink:href="#DejaVuSans-53" transform="translate(2767.40625 0)"/>
    <use xlink:href="#DejaVuSans-4f" transform="translate(2830.890625 0)"/>
    <use xlink:href="#DejaVuSans-48" transform="translate(2858.671875 0)"/>
    <use xlink:href="#DejaVuSans-56" transform="translate(2920.203125 0)"/>
    <use xlink:href="#DejaVuSans-3" transform="translate(2972.296875 0)"/>
    <use xlink:href="#DejaVuSans-44" transform="translate(3004.078125 0)"/>
    <use xlink:href="#DejaVuSans-55" transform="translate(3065.359375 0)"/>
    <use xlink:href="#DejaVuSans-48" transform="translate(3104.265625 0)"/>
    <use xlink:href="#DejaVuSans-3" transform="translate(3165.796875 0)"/>
    <use xlink:href="#DejaVuSans-4f" transform="translate(3197.578125 0)"/>
    <use xlink:href="#DejaVuSans-52" transform="translate(3225.359375 0)"/>
    <use xlink:href="#DejaVuSans-46" transform="translate(3286.546875 0)"/>
    <use xlink:href="#DejaVuSans-44" transform="translate(3341.53125 0)"/>
    <use xlink:href="#DejaVuSans-4f" transform="translate(3402.8125 0)"/>
    <use xlink:href="#DejaVuSans-3" transform="translate(3430.59375 0)"/>
    <use xlink:href="#DejaVuSans-52" transform="translate(3462.375 0)"/>
    <use xlink:href="#DejaVuSans-45" transform="translate(3523.5625 0)"/>
    <use xlink:href="#DejaVuSans-56" transform="translate(3587.046875 0)"/>
    <use xlink:href="#DejaVuSans-48" transform="translate(3639.140625 0)"/>
    <use xlink:href="#DejaVuSans-55" transform="translate(3700.671875 0)"/>
    <use xlink:href="#DejaVuSans-59" transform="translate(3741.78125 0)"/>
    <use xlink:href="#DejaVuSans-44" transform="translate(3800.96875 0)"/>
    <use xlink:href="#DejaVuSans-57" transform="translate(3862.25 0)"/>
    <use xlink:href="#DejaVuSans-4c" transform="translate(3901.453125 0)"/>
    <use xlink:href="#DejaVuSans-52" transform="translate(3929.234375 0)"/>
    <use xlink:href="#DejaVuSans-51" transform="translate(3990.421875 0)"/>
    <use xlink:href="#DejaVuSans-56" transform="translate(4053.796875 0)"/>
    <use xlink:href="#DejaVuSans-f" transform="translate(4105.890625 0)"/>
    <use xlink:href="#DejaVuSans-3" transform="translate(4137.671875 0)"/>
    <use xlink:href="#DejaVuSans-51" transform="translate(4169.453125 0)"/>
    <use xlink:href="#DejaVuSans-52" transform="translate(4232.828125 0)"/>
    <use xlink:href="#DejaVuSans-57" transform="translate(4294.015625 0)"/>
    <use xlink:href="#DejaVuSans-3" transform="translate(4333.21875 0)"/>
    <use xlink:href="#DejaVuSans-44" transform="translate(4365 0)"/>
    <use xlink:href="#DejaVuSans-3" transform="translate(4426.28125 0)"/>
    <use xlink:href="#DejaVuSans-46" transform="translate(4458.0625 0)"/>
    <use xlink:href="#DejaVuSans-44" transform="translate(4513.046875 0)"/>
    <use xlink:href="#DejaVuSans-53" transform="translate(4574.328125 0)"/>
    <use xlink:href="#DejaVuSans-44" transform="translate(4637.8125 0)"/>
    <use xlink:href="#DejaVuSans-46" transform="translate(4699.09375 0)"/>
    <use xlink:href="#DejaVuSans-4c" transform="translate(4754.078125 0)"/>
    <use xlink:href="#DejaVuSans-57" transform="translate(4781.859375 0)"/>
    <use xlink:href="#DejaVuSans-5c" transform="translate(4821.0625 0)"/>
    <use xlink:href="#DejaVuSans-3" transform="translate(4880.25 0)"/>
    <use xlink:href="#DejaVuSans-4a" transform="translate(4912.03125 0)"/>
    <use xlink:href="#DejaVuSans-58" transform="translate(4975.515625 0)"/>
    <use xlink:href="#DejaVuSans-44" transform="translate(5038.890625 0)"/>
    <use xlink:href="#DejaVuSans-55" transform="translate(5100.171875 0)"/>
    <use xlink:href="#DejaVuSans-44" transform="translate(5141.28125 0)"/>
    <use xlink:href="#DejaVuSans-51" transform="translate(5202.5625 0)"/>
    <use xlink:href="#DejaVuSans-57" transform="translate(5265.9375 0)"/>
    <use xlink:href="#DejaVuSans-48" transform="translate(5305.140625 0)"/>
    <use xlink:href="#DejaVuSans-48" transform="translate(5366.671875 0)"/>
    <use xlink:href="#DejaVuSans-11" transform="translate(5428.203125 0)"/>
   </g>
  </g>
 </g>
 <defs>
  <clipPath id="p35b8f4be23">
   <rect x="60.922344" y="75.122812" width="319.91912" height="167.874844"/>
  </clipPath>
  <clipPath id="pe4e9e902f6">
   <rect x="453.36088" y="75.122812" width="319.91912" height="167.874844"/>
  </clipPath>
 </defs>
</svg>
